<svg xmlns="http://www.w3.org/2000/svg" xmlns:xlink="http://www.w3.org/1999/xlink" width="1080" zoomAndPan="magnify" viewBox="0 0 810 809.999993" height="1080" preserveAspectRatio="xMidYMid meet" version="1.0"><path fill="#caddff" d="M 199.726562 223.117188 C 278.796875 143.511719 256.160156 93.625 310.261719 56.765625 C 393.511719 0.0546875 548.886719 48.847656 640.546875 126.851562 C 752.816406 222.390625 810.738281 396.835938 744.757812 554.648438 C 674.488281 722.714844 489.597656 809.960938 324.617188 783.667969 C 177.289062 760.191406 32.460938 644.039062 17.949219 504.734375 C 16.378906 489.632812 9.433594 408.011719 58.132812 337.644531 C 98.382812 279.476562 137.050781 286.21875 199.726562 223.117188 " fill-opacity="1" fill-rule="nonzero"/><path fill="#99b9ff" d="M 135.773438 137.558594 C 188.222656 127.902344 236.652344 152.214844 243.945312 191.863281 C 247.210938 209.605469 241.679688 227.40625 229.878906 242.535156 L 253.480469 278.835938 L 203.917969 265.363281 C 191.886719 272.75 177.738281 278.277344 162.191406 281.136719 C 109.746094 290.796875 61.320312 266.480469 54.023438 226.828125 C 46.726562 187.183594 83.332031 147.214844 135.773438 137.558594 " fill-opacity="1" fill-rule="nonzero"/><path fill="#000000" d="M 97.984375 144.71875 C 97.542969 144.71875 97.113281 144.511719 96.847656 144.113281 C 96.425781 143.484375 96.589844 142.636719 97.21875 142.214844 C 98.382812 141.429688 99.578125 140.664062 100.765625 139.925781 C 101.40625 139.53125 102.253906 139.730469 102.652344 140.375 C 103.046875 141.015625 102.847656 141.859375 102.203125 142.257812 C 101.046875 142.972656 99.882812 143.722656 98.746094 144.488281 C 98.511719 144.644531 98.246094 144.71875 97.984375 144.71875 " fill-opacity="1" fill-rule="nonzero"/><path fill="#000000" d="M 147.066406 272.214844 C 103.441406 272.214844 66.699219 249.078125 60.371094 214.683594 C 56.136719 191.675781 66.054688 167.929688 87.578125 149.527344 C 88.152344 149.039062 89.015625 149.105469 89.507812 149.683594 C 90 150.253906 89.929688 151.117188 89.355469 151.609375 C 68.59375 169.355469 59.011719 192.164062 63.0625 214.1875 C 70.210938 253.027344 118.019531 276.90625 169.636719 267.390625 C 173.507812 266.679688 177.359375 265.789062 181.09375 264.734375 C 181.828125 264.527344 182.578125 264.953125 182.785156 265.683594 C 182.988281 266.40625 182.566406 267.167969 181.839844 267.371094 C 178.023438 268.445312 174.085938 269.359375 170.132812 270.089844 C 162.320312 271.527344 154.585938 272.214844 147.066406 272.214844 " fill-opacity="1" fill-rule="nonzero"/><path fill="#000000" d="M 261.171875 267.804688 C 261.054688 267.804688 260.933594 267.792969 260.816406 267.757812 L 211.820312 254.441406 C 208.265625 256.597656 204.515625 258.601562 200.671875 260.390625 C 199.984375 260.714844 199.171875 260.417969 198.851562 259.734375 C 198.53125 259.050781 198.828125 258.230469 199.515625 257.914062 C 203.449219 256.078125 207.277344 254.019531 210.894531 251.792969 C 211.21875 251.601562 211.605469 251.539062 211.96875 251.640625 L 258.066406 264.171875 L 236.425781 230.882812 C 236.105469 230.390625 236.132812 229.75 236.492188 229.289062 C 248.453125 213.960938 253.351562 196.355469 250.292969 179.714844 C 246.84375 160.96875 233.90625 145.105469 213.871094 135.050781 C 193.707031 124.921875 168.792969 121.886719 143.714844 126.511719 C 137.804688 127.59375 131.964844 129.101562 126.359375 130.988281 C 125.644531 131.226562 124.867188 130.84375 124.625 130.125 C 124.386719 129.40625 124.769531 128.632812 125.488281 128.390625 C 131.214844 126.464844 137.179688 124.921875 143.222656 123.8125 C 168.878906 119.089844 194.40625 122.210938 215.101562 132.597656 C 235.921875 143.054688 249.378906 159.613281 252.988281 179.21875 C 256.140625 196.355469 251.261719 214.429688 239.25 230.203125 L 262.320312 265.6875 C 262.632812 266.164062 262.613281 266.785156 262.28125 267.246094 C 262.019531 267.601562 261.605469 267.804688 261.171875 267.804688 " fill-opacity="1" fill-rule="nonzero"/><path fill="#5479f7" d="M 159.0625 190.5 C 158.304688 190.5 157.695312 189.886719 157.691406 189.132812 C 157.691406 188.378906 158.300781 187.765625 159.058594 187.761719 L 225.03125 187.605469 C 225.035156 187.605469 225.035156 187.605469 225.035156 187.605469 C 225.789062 187.605469 226.402344 188.21875 226.40625 188.972656 C 226.40625 189.730469 225.792969 190.339844 225.039062 190.347656 L 159.0625 190.5 " fill-opacity="1" fill-rule="nonzero"/><path fill="#5479f7" d="M 83.425781 188.597656 C 82.675781 188.597656 82.0625 187.988281 82.058594 187.238281 C 82.050781 186.480469 82.664062 185.863281 83.417969 185.859375 L 146.457031 185.507812 C 146.457031 185.507812 146.460938 185.507812 146.464844 185.507812 C 147.214844 185.507812 147.828125 186.117188 147.832031 186.871094 C 147.835938 187.625 147.226562 188.246094 146.472656 188.25 L 83.433594 188.597656 C 83.433594 188.597656 83.429688 188.597656 83.425781 188.597656 " fill-opacity="1" fill-rule="nonzero"/><path fill="#5479f7" d="M 222.179688 207.664062 C 222.175781 207.664062 222.171875 207.664062 222.164062 207.664062 L 135.96875 206.597656 C 135.210938 206.589844 134.605469 205.96875 134.617188 205.214844 C 134.625 204.464844 135.238281 203.859375 135.988281 203.859375 C 135.992188 203.859375 135.996094 203.859375 136.003906 203.859375 L 222.199219 204.921875 C 222.953125 204.933594 223.558594 205.554688 223.550781 206.308594 C 223.539062 207.058594 222.929688 207.664062 222.179688 207.664062 " fill-opacity="1" fill-rule="nonzero"/><path fill="#5479f7" d="M 119.273438 206.394531 C 119.269531 206.394531 119.261719 206.394531 119.253906 206.394531 L 80.558594 205.917969 C 79.800781 205.90625 79.195312 205.289062 79.203125 204.527344 C 79.214844 203.78125 79.824219 203.175781 80.574219 203.175781 C 80.578125 203.175781 80.585938 203.175781 80.589844 203.175781 L 119.289062 203.65625 C 120.046875 203.667969 120.652344 204.289062 120.644531 205.046875 C 120.632812 205.792969 120.023438 206.394531 119.273438 206.394531 " fill-opacity="1" fill-rule="nonzero"/><path fill="#5479f7" d="M 224.640625 222.308594 C 224.636719 222.308594 224.632812 222.308594 224.632812 222.308594 L 193.050781 222.113281 C 192.292969 222.105469 191.683594 221.492188 191.6875 220.734375 C 191.691406 219.980469 192.304688 219.371094 193.058594 219.371094 C 193.0625 219.371094 193.0625 219.371094 193.066406 219.371094 L 224.648438 219.566406 C 225.40625 219.570312 226.015625 220.1875 226.011719 220.945312 C 226.003906 221.699219 225.394531 222.308594 224.640625 222.308594 " fill-opacity="1" fill-rule="nonzero"/><path fill="#5479f7" d="M 185.53125 222.230469 C 185.523438 222.230469 185.515625 222.230469 185.507812 222.230469 L 83.011719 220.558594 C 82.253906 220.542969 81.652344 219.921875 81.664062 219.164062 C 81.675781 218.40625 82.289062 217.792969 83.054688 217.820312 L 185.550781 219.492188 C 186.308594 219.503906 186.910156 220.125 186.898438 220.882812 C 186.886719 221.632812 186.277344 222.230469 185.53125 222.230469 " fill-opacity="1" fill-rule="nonzero"/><path fill="#5479f7" d="M 657.5625 748.636719 L 317.953125 748.636719 C 303.316406 748.636719 292.949219 736.828125 294.792969 722.265625 L 378.417969 62.699219 C 380.265625 48.132812 393.628906 36.328125 408.257812 36.328125 L 730.824219 32.5625 C 767.84375 32.5625 772.871094 48.132812 771.027344 62.699219 L 687.402344 722.265625 C 685.558594 736.828125 672.191406 748.636719 657.5625 748.636719 " fill-opacity="1" fill-rule="nonzero"/><path fill="#ffffff" d="M 637.125 748.636719 L 297.515625 748.636719 C 282.882812 748.636719 272.515625 736.769531 274.359375 722.128906 L 357.984375 59.199219 C 359.832031 44.558594 373.191406 32.691406 387.824219 32.691406 L 727.433594 32.691406 C 742.070312 32.691406 752.4375 44.558594 750.589844 59.199219 L 666.96875 722.128906 C 665.121094 736.769531 651.757812 748.636719 637.125 748.636719 " fill-opacity="1" fill-rule="nonzero"/><path fill="#caddff" d="M 293.714844 723.042969 L 373.558594 90.054688 C 373.984375 86.675781 377.070312 83.9375 380.445312 83.9375 L 721.882812 83.9375 C 725.261719 83.9375 727.65625 86.675781 727.226562 90.054688 L 647.382812 723.042969 C 646.960938 726.421875 643.871094 729.160156 640.492188 729.160156 L 299.058594 729.160156 C 295.679688 729.160156 293.285156 726.421875 293.714844 723.042969 " fill-opacity="1" fill-rule="nonzero"/><path fill="#caddff" d="M 553.378906 66.40625 C 547.898438 66.40625 544.011719 61.957031 544.703125 56.472656 C 545.394531 50.992188 550.398438 46.546875 555.882812 46.546875 C 561.363281 46.546875 565.25 50.992188 564.558594 56.472656 C 563.867188 61.957031 558.863281 66.40625 553.378906 66.40625 " fill-opacity="1" fill-rule="nonzero"/><path fill="#000000" d="M 637.125 750.003906 L 356.8125 750.003906 C 356.054688 750.003906 355.445312 749.390625 355.445312 748.636719 C 355.445312 747.878906 356.054688 747.265625 356.8125 747.265625 L 637.125 747.265625 C 651.066406 747.265625 663.851562 735.914062 665.605469 721.960938 L 749.226562 59.03125 C 750.074219 52.308594 748.253906 46.003906 744.097656 41.289062 C 739.992188 36.628906 734.074219 34.0625 727.4375 34.0625 L 387.824219 34.0625 C 373.878906 34.0625 361.101562 45.417969 359.34375 59.371094 L 304.316406 495.585938 C 304.222656 496.335938 303.542969 496.867188 302.785156 496.773438 C 302.039062 496.675781 301.503906 495.992188 301.597656 495.242188 L 356.621094 59.03125 C 358.550781 43.753906 372.550781 31.324219 387.824219 31.324219 L 727.4375 31.324219 C 734.867188 31.324219 741.515625 34.222656 746.15625 39.476562 C 750.835938 44.792969 752.898438 51.855469 751.945312 59.371094 L 668.324219 722.300781 C 666.394531 737.578125 652.398438 750.003906 637.125 750.003906 " fill-opacity="1" fill-rule="nonzero"/><path fill="#000000" d="M 640.496094 730.53125 L 529.351562 730.53125 C 528.59375 730.53125 527.976562 729.914062 527.976562 729.160156 C 527.976562 728.40625 528.59375 727.789062 529.351562 727.789062 L 640.496094 727.789062 C 643.203125 727.789062 645.683594 725.585938 646.027344 722.871094 L 725.871094 89.882812 C 726.035156 88.632812 725.699219 87.472656 724.945312 86.617188 C 724.195312 85.769531 723.117188 85.304688 721.882812 85.304688 L 380.449219 85.304688 C 377.746094 85.304688 375.257812 87.507812 374.917969 90.226562 L 319.65625 528.316406 C 319.5625 529.066406 318.875 529.597656 318.128906 529.507812 C 317.378906 529.410156 316.84375 528.726562 316.941406 527.976562 L 372.199219 89.882812 C 372.710938 85.84375 376.414062 82.5625 380.449219 82.5625 L 721.882812 82.5625 C 723.910156 82.5625 725.726562 83.359375 726.996094 84.804688 C 728.285156 86.261719 728.851562 88.183594 728.59375 90.226562 L 648.742188 723.210938 C 648.238281 727.25 644.535156 730.53125 640.496094 730.53125 " fill-opacity="1" fill-rule="nonzero"/><path fill="#000000" d="M 337.988281 464.199219 C 337.988281 464.144531 337.988281 464.085938 337.988281 464.03125 C 338.335938 446.085938 349.441406 427.796875 370.992188 409.671875 C 386.097656 396.96875 400.96875 388.96875 401.589844 388.632812 C 406.578125 385.972656 412.78125 387.851562 415.445312 392.839844 C 418.109375 397.828125 416.226562 404.03125 411.242188 406.695312 C 396.71875 414.492188 358.929688 440.046875 358.460938 464.421875 C 358.460938 464.460938 358.460938 464.5 358.460938 464.535156 C 358.332031 472.265625 360.617188 478.285156 365.449219 482.929688 C 377.019531 494.042969 400.480469 495.226562 408.542969 494.738281 C 414.183594 494.40625 419.03125 498.707031 419.371094 504.351562 C 419.707031 509.988281 415.40625 514.847656 409.761719 515.183594 C 408.214844 515.277344 371.597656 517.226562 351.269531 497.699219 C 342.234375 489.015625 337.765625 477.746094 337.988281 464.199219 " fill-opacity="1" fill-rule="nonzero"/><path fill="#5479f7" d="M 410.554688 537.304688 L 411.550781 476.664062 C 411.644531 471.007812 416.296875 466.5 421.953125 466.59375 C 427.605469 466.6875 432.113281 471.34375 432.023438 477 L 431.027344 537.640625 C 430.933594 543.292969 426.277344 547.800781 420.625 547.707031 C 414.972656 547.617188 410.464844 542.957031 410.554688 537.304688 " fill-opacity="1" fill-rule="nonzero"/><path fill="#5479f7" d="M 327.890625 281.175781 L 349.277344 281.175781 C 350.128906 281.175781 350.820312 280.488281 350.820312 279.640625 L 350.820312 215.683594 C 350.820312 214.832031 350.132812 214.148438 349.277344 214.148438 L 327.890625 214.148438 C 323.394531 214.148438 319.757812 217.785156 319.757812 222.28125 L 319.757812 273.039062 C 319.757812 277.535156 323.394531 281.175781 327.890625 281.175781 " fill-opacity="1" fill-rule="nonzero"/><path fill="#ffffff" d="M 645.769531 281.175781 L 624.128906 281.175781 L 624.128906 220.621094 L 645.769531 220.621094 C 650.972656 220.621094 655.1875 224.839844 655.1875 230.046875 L 655.1875 271.746094 C 655.1875 276.953125 650.972656 281.175781 645.769531 281.175781 " fill-opacity="1" fill-rule="nonzero"/><path fill="#000000" d="M 625.503906 279.804688 L 628.503906 279.804688 C 642.460938 279.804688 653.820312 268.441406 653.820312 254.476562 L 653.820312 247.316406 C 653.820312 233.351562 642.460938 221.992188 628.503906 221.992188 L 625.503906 221.992188 Z M 628.503906 282.542969 L 624.132812 282.542969 C 623.375 282.542969 622.765625 281.929688 622.765625 281.167969 L 622.765625 220.621094 C 622.765625 219.863281 623.375 219.25 624.132812 219.25 L 628.503906 219.25 C 643.972656 219.25 656.5625 231.84375 656.5625 247.316406 L 656.5625 254.476562 C 656.5625 269.953125 643.972656 282.542969 628.503906 282.542969 " fill-opacity="1" fill-rule="nonzero"/><path fill="#ffffff" d="M 633.917969 248.394531 C 633.917969 183.328125 568.351562 116.023438 487.472656 116.023438 C 406.597656 116.023438 341.03125 183.328125 341.03125 248.394531 C 341.03125 313.464844 406.597656 351.648438 487.472656 351.648438 C 568.351562 351.648438 633.917969 313.464844 633.917969 248.394531 " fill-opacity="1" fill-rule="nonzero"/><path fill="#000000" d="M 487.472656 117.394531 C 404.441406 117.394531 342.402344 186.554688 342.402344 248.394531 C 342.402344 278.933594 357.023438 304.828125 384.679688 323.289062 C 410.78125 340.695312 447.28125 350.277344 487.472656 350.277344 C 527.664062 350.277344 564.167969 340.695312 590.261719 323.289062 C 617.921875 304.828125 632.546875 278.933594 632.546875 248.394531 C 632.546875 186.554688 570.503906 117.394531 487.472656 117.394531 Z M 487.472656 353.019531 C 446.75 353.019531 409.699219 343.269531 383.167969 325.566406 C 354.703125 306.578125 339.664062 279.894531 339.664062 248.394531 C 339.664062 216.125 355.453125 182.746094 382.980469 156.8125 C 411.851562 129.628906 448.957031 114.65625 487.472656 114.65625 C 525.992188 114.65625 563.101562 129.628906 591.960938 156.8125 C 619.492188 182.746094 635.28125 216.125 635.28125 248.394531 C 635.28125 279.894531 620.246094 306.578125 591.78125 325.566406 C 565.246094 343.269531 528.199219 353.019531 487.472656 353.019531 " fill-opacity="1" fill-rule="nonzero"/><path fill="#ffffff" d="M 450.792969 371.199219 L 524.160156 371.199219 C 556.308594 371.199219 582.375 397.269531 582.375 429.433594 C 582.375 450.683594 580.304688 471.882812 576.191406 492.730469 L 565.644531 546.167969 C 558.273438 583.511719 525.527344 610.429688 487.476562 610.429688 C 449.417969 610.429688 416.679688 583.511719 409.308594 546.167969 L 398.761719 492.730469 C 394.644531 471.882812 392.574219 450.683594 392.574219 429.433594 C 392.574219 397.269531 418.640625 371.199219 450.792969 371.199219 " fill-opacity="1" fill-rule="nonzero"/><path fill="#000000" d="M 450.792969 372.566406 C 419.449219 372.566406 393.945312 398.078125 393.945312 429.433594 C 393.945312 450.550781 396.019531 471.757812 400.105469 492.46875 L 410.652344 545.902344 C 417.878906 582.496094 450.183594 609.058594 487.472656 609.058594 C 524.761719 609.058594 557.078125 582.496094 564.296875 545.902344 L 574.847656 492.46875 C 578.9375 471.757812 581.007812 450.550781 581.007812 429.433594 C 581.007812 398.078125 555.503906 372.566406 524.15625 372.566406 Z M 487.472656 611.800781 C 448.878906 611.800781 415.445312 584.308594 407.96875 546.429688 L 397.417969 493 C 393.300781 472.113281 391.207031 450.726562 391.207031 429.433594 C 391.207031 396.570312 417.933594 369.828125 450.792969 369.828125 L 524.15625 369.828125 C 557.011719 369.828125 583.742188 396.570312 583.742188 429.433594 C 583.742188 450.726562 581.65625 472.113281 577.535156 493 L 566.988281 546.429688 C 559.507812 584.308594 526.070312 611.800781 487.472656 611.800781 " fill-opacity="1" fill-rule="nonzero"/><path fill="#caddff" d="M 482.757812 500.234375 L 492.195312 500.234375 C 511.640625 500.234375 527.40625 484.464844 527.40625 465.011719 L 527.40625 371.199219 L 447.542969 371.199219 L 447.542969 465.011719 C 447.542969 484.464844 463.308594 500.234375 482.757812 500.234375 " fill-opacity="1" fill-rule="nonzero"/><path fill="#000000" d="M 527.40625 372.566406 L 447.542969 372.566406 C 446.789062 372.566406 446.175781 371.953125 446.175781 371.199219 C 446.175781 370.441406 446.789062 369.828125 447.542969 369.828125 L 527.40625 369.828125 C 528.164062 369.828125 528.78125 370.441406 528.78125 371.199219 C 528.78125 371.953125 528.164062 372.566406 527.40625 372.566406 " fill-opacity="1" fill-rule="nonzero"/><path fill="#000000" d="M 389.019531 228.871094 L 530.035156 228.871094 C 544.6875 228.871094 556.5625 241.671875 556.5625 257.460938 L 556.5625 276.117188 C 556.5625 288.160156 550.136719 300.921875 539.054688 303.003906 C 499.976562 310.351562 419.082031 310.351562 380 303.003906 C 368.917969 300.921875 362.492188 288.160156 362.492188 276.117188 L 362.492188 257.460938 C 362.492188 241.671875 374.371094 228.871094 389.019531 228.871094 " fill-opacity="1" fill-rule="nonzero"/><path fill="#5479f7" d="M 492.667969 266.40625 C 492.667969 271.699219 496.644531 275.988281 501.554688 275.988281 C 506.460938 275.988281 510.445312 271.699219 510.445312 266.40625 C 510.445312 261.117188 506.460938 256.828125 501.554688 256.828125 C 496.644531 256.828125 492.667969 261.117188 492.667969 266.40625 " fill-opacity="1" fill-rule="nonzero"/><path fill="#5479f7" d="M 398.117188 266.40625 C 398.117188 271.699219 402.097656 275.988281 407.003906 275.988281 C 411.910156 275.988281 415.890625 271.699219 415.890625 266.40625 C 415.890625 261.117188 411.910156 256.828125 407.003906 256.828125 C 402.097656 256.828125 398.117188 261.117188 398.117188 266.40625 " fill-opacity="1" fill-rule="nonzero"/><path fill="#5479f7" d="M 545.660156 322.726562 C 545.082031 322.726562 544.550781 322.363281 544.363281 321.785156 C 544.128906 321.066406 544.511719 320.292969 545.234375 320.058594 L 590.261719 305.226562 C 610.789062 298.464844 623.3125 278.054688 620.042969 256.683594 L 616.800781 235.503906 C 616.683594 234.753906 617.195312 234.054688 617.941406 233.941406 C 618.699219 233.824219 619.390625 234.339844 619.503906 235.089844 L 622.746094 256.265625 C 626.222656 278.960938 612.917969 300.648438 591.113281 307.828125 L 546.089844 322.65625 C 545.949219 322.707031 545.804688 322.726562 545.660156 322.726562 " fill-opacity="1" fill-rule="nonzero"/><path fill="#5479f7" d="M 639.347656 226.386719 C 638.738281 226.386719 638.183594 225.984375 638.027344 225.371094 C 637.949219 225.089844 630.398438 197.144531 610.558594 170.023438 C 592.324219 145.097656 559.65625 115.769531 507.484375 117.636719 C 506.746094 117.65625 506.089844 117.070312 506.070312 116.3125 C 506.039062 115.558594 506.628906 114.925781 507.386719 114.894531 C 530.941406 114.0625 552.652344 119.328125 571.851562 130.546875 C 587.195312 139.515625 600.976562 152.273438 612.820312 168.476562 C 632.941406 196.003906 640.59375 224.382812 640.671875 224.667969 C 640.863281 225.398438 640.425781 226.148438 639.695312 226.34375 C 639.578125 226.375 639.460938 226.386719 639.347656 226.386719 " fill-opacity="1" fill-rule="nonzero"/><path fill="#99b9ff" d="M 600.945312 258.015625 C 598.53125 238.941406 610.75 221.691406 628.226562 219.476562 C 630.144531 219.234375 637.246094 219.050781 639.117188 219.179688 C 654.28125 220.199219 662.101562 233.023438 664.25 250.003906 C 666.5625 268.316406 659.589844 285.421875 643.21875 288.679688 C 642.542969 288.816406 637.699219 289.203125 636.992188 289.203125 C 617.832031 289.265625 603.355469 277.085938 600.945312 258.015625 " fill-opacity="1" fill-rule="nonzero"/><path fill="#5479f7" d="M 608.5 257.394531 C 606.464844 238.277344 619.019531 221.269531 636.535156 219.398438 C 654.054688 217.53125 669.914062 231.511719 671.953125 250.628906 C 673.992188 269.742188 661.4375 286.75 643.921875 288.621094 C 626.398438 290.488281 610.542969 276.511719 608.5 257.394531 " fill-opacity="1" fill-rule="nonzero"/><path fill="#5479f7" d="M 555.8125 328.03125 L 520.746094 331.367188 C 519.402344 331.492188 518.203125 330.496094 518.078125 329.15625 L 517.050781 318.367188 C 516.921875 317.023438 517.917969 315.820312 519.257812 315.695312 L 554.328125 312.359375 C 555.667969 312.238281 556.871094 313.226562 556.996094 314.566406 L 558.019531 325.359375 C 558.148438 326.703125 557.15625 327.902344 555.8125 328.03125 " fill-opacity="1" fill-rule="nonzero"/><path fill="#99b9ff" d="M 412.027344 578.003906 L 548.570312 578.003906 L 495.535156 434.542969 L 358.992188 434.539062 L 412.027344 578.003906 " fill-opacity="1" fill-rule="nonzero"/><path fill="#000000" d="M 412.980469 576.636719 L 546.601562 576.636719 L 494.582031 435.910156 L 360.960938 435.910156 Z M 548.570312 579.378906 L 412.027344 579.378906 C 411.457031 579.378906 410.945312 579.015625 410.746094 578.480469 L 357.707031 435.011719 C 357.554688 434.597656 357.613281 434.125 357.867188 433.757812 C 358.125 433.386719 358.546875 433.171875 358.992188 433.171875 L 495.535156 433.171875 C 496.109375 433.171875 496.621094 433.527344 496.820312 434.066406 L 549.859375 577.53125 C 550.011719 577.949219 549.953125 578.421875 549.691406 578.789062 C 549.441406 579.15625 549.019531 579.378906 548.570312 579.378906 " fill-opacity="1" fill-rule="nonzero"/><path fill="#000000" d="M 581.148438 542.382812 C 601.199219 542.382812 628.339844 539.527344 645.734375 526.1875 C 655.753906 518.496094 661.609375 508.347656 663.136719 496.011719 C 669.980469 440.65625 603.191406 408.96875 600.351562 407.644531 C 595.21875 405.261719 589.132812 407.488281 586.75 412.625 C 584.375 417.746094 586.597656 423.828125 591.714844 426.210938 C 592.277344 426.480469 647.832031 452.960938 642.816406 493.503906 C 641.980469 500.273438 638.859375 505.648438 633.273438 509.933594 C 614.148438 524.601562 563.707031 524.234375 549.253906 522.203125 C 543.65625 521.410156 540.910156 525.121094 540.128906 530.722656 C 539.339844 536.320312 543.636719 541.675781 549.253906 542.289062 C 557.363281 543.183594 566.863281 542.382812 581.148438 542.382812 " fill-opacity="1" fill-rule="nonzero"/><path fill="#000000" d="M 505.589844 556.320312 L 525.25 556.320312 C 535.992188 556.320312 544.894531 548.253906 545.960938 537.566406 L 546.648438 530.722656 C 547.230469 524.878906 545.308594 519.03125 541.367188 514.675781 C 537.429688 510.324219 531.800781 507.828125 525.929688 507.828125 L 494.574219 507.828125 C 488.921875 507.828125 484.335938 512.410156 484.335938 518.066406 C 484.335938 523.71875 488.921875 528.308594 494.574219 528.308594 L 525.929688 528.308594 C 525.988281 528.308594 526.082031 528.308594 526.1875 528.417969 C 526.289062 528.53125 526.28125 528.625 526.273438 528.683594 L 525.589844 535.527344 C 525.574219 535.707031 525.425781 535.839844 525.25 535.839844 L 505.589844 535.839844 C 499.9375 535.839844 495.351562 540.421875 495.351562 546.082031 C 495.351562 551.734375 499.9375 556.320312 505.589844 556.320312 " fill-opacity="1" fill-rule="nonzero"/><path fill="#99b9ff" d="M 281.550781 59.320312 C 293.84375 55.460938 306.933594 62.308594 310.785156 74.609375 C 314.636719 86.90625 307.792969 100 295.503906 103.855469 C 283.210938 107.710938 270.121094 100.859375 266.269531 88.566406 C 262.414062 76.265625 269.257812 63.175781 281.550781 59.320312 Z M 242.441406 91.28125 L 245.152344 99.933594 L 255.015625 99.121094 C 256 101.015625 257.125 102.800781 258.386719 104.460938 L 253.460938 113.039062 L 260.132812 119.171875 L 268.273438 113.535156 C 270.050781 114.664062 271.921875 115.636719 273.859375 116.460938 L 273.878906 126.359375 L 282.722656 128.335938 L 286.949219 119.398438 C 289.035156 119.480469 291.144531 119.386719 293.257812 119.121094 L 298.222656 127.683594 L 306.867188 124.976562 L 306.058594 115.105469 C 307.949219 114.121094 309.734375 112.992188 311.394531 111.734375 L 319.96875 116.660156 L 326.097656 109.988281 L 320.464844 101.84375 C 321.59375 100.070312 322.570312 98.195312 323.386719 96.257812 L 333.285156 96.238281 L 335.261719 87.394531 L 326.324219 83.164062 C 326.410156 81.078125 326.320312 78.972656 326.050781 76.851562 L 334.609375 71.886719 L 331.902344 63.238281 L 322.039062 64.050781 C 321.054688 62.15625 319.925781 60.371094 318.664062 58.710938 L 323.59375 50.132812 L 316.917969 44 L 308.78125 49.636719 C 307.003906 48.507812 305.132812 47.535156 303.191406 46.710938 L 303.171875 36.8125 L 294.332031 34.835938 L 290.105469 43.773438 C 288.019531 43.683594 285.910156 43.777344 283.796875 44.050781 L 278.832031 35.488281 L 270.1875 38.199219 L 270.996094 48.066406 C 269.105469 49.050781 267.320312 50.171875 265.660156 51.4375 L 257.085938 46.511719 L 250.957031 53.179688 L 256.589844 61.324219 C 255.460938 63.101562 254.484375 64.976562 253.667969 66.914062 L 243.769531 66.933594 L 241.792969 75.777344 L 250.726562 80.007812 C 250.640625 82.09375 250.734375 84.199219 251.003906 86.3125 L 242.441406 91.28125 " fill-opacity="1" fill-rule="nonzero"/><path fill="#caddff" d="M 191.390625 52.023438 C 199.542969 49.46875 208.226562 54.007812 210.78125 62.164062 C 213.335938 70.316406 208.796875 79 200.644531 81.554688 C 192.492188 84.113281 183.8125 79.574219 181.257812 71.417969 C 178.703125 63.261719 183.238281 54.582031 191.390625 52.023438 Z M 165.453125 73.222656 L 167.253906 78.957031 L 173.792969 78.421875 C 174.449219 79.671875 175.195312 80.859375 176.03125 81.957031 L 172.765625 87.648438 L 177.1875 91.71875 L 182.585938 87.976562 C 183.765625 88.726562 185.003906 89.371094 186.289062 89.917969 L 186.304688 96.484375 L 192.167969 97.792969 L 194.972656 91.863281 C 196.355469 91.925781 197.75 91.859375 199.15625 91.683594 L 202.449219 97.363281 L 208.179688 95.5625 L 207.644531 89.019531 C 208.898438 88.371094 210.082031 87.621094 211.183594 86.785156 L 216.867188 90.050781 L 220.9375 85.625 L 217.199219 80.226562 C 217.945312 79.046875 218.59375 77.808594 219.136719 76.523438 L 225.699219 76.503906 L 227.011719 70.640625 L 221.085938 67.835938 C 221.144531 66.453125 221.082031 65.054688 220.902344 63.652344 L 226.582031 60.359375 L 224.785156 54.621094 L 218.242188 55.160156 C 217.589844 53.902344 216.839844 52.722656 216.003906 51.617188 L 219.273438 45.933594 L 214.847656 41.863281 L 209.449219 45.605469 C 208.269531 44.855469 207.03125 44.207031 205.746094 43.664062 L 205.730469 37.097656 L 199.867188 35.785156 L 197.066406 41.714844 C 195.683594 41.65625 194.285156 41.714844 192.882812 41.898438 L 189.589844 36.21875 L 183.855469 38.011719 L 184.390625 44.5625 C 183.136719 45.210938 181.953125 45.960938 180.851562 46.796875 L 175.167969 43.527344 L 171.101562 47.953125 L 174.835938 53.355469 C 174.089844 54.53125 173.441406 55.773438 172.898438 57.058594 L 166.335938 57.074219 L 165.023438 62.941406 L 170.949219 65.746094 C 170.894531 67.125 170.953125 68.523438 171.132812 69.925781 L 165.453125 73.222656 " fill-opacity="1" fill-rule="nonzero"/><path fill="#000000" d="M 645.746094 121.265625 C 645.675781 121.265625 645.605469 121.257812 645.53125 121.25 C 644.785156 121.132812 644.273438 120.433594 644.390625 119.683594 L 645.496094 112.667969 C 645.617188 111.921875 646.324219 111.414062 647.0625 111.527344 C 647.808594 111.648438 648.324219 112.347656 648.203125 113.09375 L 647.097656 120.109375 C 646.992188 120.785156 646.40625 121.265625 645.746094 121.265625 " fill-opacity="1" fill-rule="nonzero"/><path fill="#000000" d="M 641.875 145.824219 C 641.808594 145.824219 641.730469 145.816406 641.660156 145.804688 C 640.914062 145.683594 640.40625 144.988281 640.519531 144.238281 L 641.628906 137.222656 C 641.742188 136.476562 642.453125 135.964844 643.191406 136.082031 C 643.9375 136.203125 644.453125 136.902344 644.332031 137.648438 L 643.230469 144.664062 C 643.125 145.339844 642.535156 145.824219 641.875 145.824219 " fill-opacity="1" fill-rule="nonzero"/><path fill="#000000" d="M 635.75 128.542969 C 635.671875 128.542969 635.59375 128.539062 635.511719 128.523438 L 628.625 127.332031 C 627.878906 127.203125 627.378906 126.496094 627.507812 125.75 C 627.632812 125.003906 628.339844 124.503906 629.089844 124.632812 L 635.980469 125.824219 C 636.722656 125.953125 637.226562 126.660156 637.097656 127.410156 C 636.980469 128.074219 636.40625 128.542969 635.75 128.542969 " fill-opacity="1" fill-rule="nonzero"/><path fill="#000000" d="M 659.878906 132.714844 C 659.796875 132.714844 659.71875 132.710938 659.640625 132.695312 L 652.746094 131.503906 C 652 131.378906 651.503906 130.667969 651.632812 129.921875 C 651.761719 129.175781 652.457031 128.679688 653.21875 128.804688 L 660.109375 129.996094 C 660.851562 130.125 661.355469 130.832031 661.226562 131.578125 C 661.109375 132.246094 660.53125 132.714844 659.878906 132.714844 " fill-opacity="1" fill-rule="nonzero"/><path fill="#000000" d="M 610.167969 606.6875 C 610.097656 606.6875 610.023438 606.683594 609.953125 606.667969 C 609.203125 606.550781 608.695312 605.851562 608.8125 605.101562 L 609.921875 598.085938 C 610.035156 597.339844 610.734375 596.824219 611.484375 596.945312 C 612.230469 597.066406 612.742188 597.765625 612.621094 598.515625 L 611.519531 605.527344 C 611.414062 606.199219 610.828125 606.6875 610.167969 606.6875 " fill-opacity="1" fill-rule="nonzero"/><path fill="#000000" d="M 606.292969 631.242188 C 606.222656 631.242188 606.144531 631.234375 606.078125 631.222656 C 605.328125 631.105469 604.820312 630.402344 604.933594 629.660156 L 606.042969 622.644531 C 606.160156 621.894531 606.863281 621.386719 607.613281 621.503906 C 608.355469 621.625 608.867188 622.320312 608.746094 623.070312 L 607.644531 630.085938 C 607.535156 630.757812 606.953125 631.242188 606.292969 631.242188 " fill-opacity="1" fill-rule="nonzero"/><path fill="#000000" d="M 600.167969 613.964844 C 600.089844 613.964844 600.007812 613.957031 599.933594 613.945312 L 593.042969 612.753906 C 592.289062 612.625 591.792969 611.914062 591.921875 611.171875 C 592.050781 610.425781 592.757812 609.925781 593.507812 610.054688 L 600.398438 611.246094 C 601.140625 611.378906 601.644531 612.085938 601.515625 612.828125 C 601.398438 613.496094 600.820312 613.964844 600.167969 613.964844 " fill-opacity="1" fill-rule="nonzero"/><path fill="#000000" d="M 624.292969 618.132812 C 624.214844 618.132812 624.136719 618.128906 624.058594 618.117188 L 617.164062 616.925781 C 616.421875 616.792969 615.921875 616.085938 616.050781 615.34375 C 616.179688 614.59375 616.882812 614.097656 617.632812 614.226562 L 624.527344 615.417969 C 625.269531 615.546875 625.769531 616.257812 625.640625 617 C 625.527344 617.667969 624.949219 618.132812 624.292969 618.132812 " fill-opacity="1" fill-rule="nonzero"/><path fill="#ffffff" d="M 530.988281 642.632812 C 533.222656 642.316406 535.703125 642.496094 538.429688 643.410156 L 570.835938 650.539062 C 570.835938 650.539062 563.679688 659.332031 556.222656 659.835938 C 560.257812 666.113281 562.570312 671.691406 562.570312 671.691406 C 562.570312 671.691406 576.929688 675.253906 579.890625 676.570312 C 582.851562 677.882812 587.105469 679.328125 589.175781 682.417969 C 591.257812 685.511719 591.011719 690.175781 591.011719 690.175781 L 556.625 688.011719 L 525.761719 662.160156 L 469.132812 690.265625 L 471.648438 655.363281 L 530.988281 642.632812 " fill-opacity="1" fill-rule="nonzero"/><path fill="#000000" d="M 557.15625 686.671875 L 589.621094 688.714844 C 589.523438 687.238281 589.1875 684.894531 588.035156 683.183594 C 586.480469 680.863281 583.253906 679.492188 580.65625 678.390625 C 580.195312 678.199219 579.753906 678.007812 579.335938 677.820312 C 576.996094 676.78125 566.199219 674.003906 562.238281 673.019531 C 561.816406 672.917969 561.46875 672.617188 561.300781 672.21875 C 561.285156 672.160156 558.984375 666.664062 555.066406 660.578125 C 554.804688 660.167969 554.777344 659.65625 554.996094 659.222656 C 555.214844 658.785156 555.644531 658.503906 556.128906 658.46875 C 560.976562 658.140625 565.828125 653.832031 568.226562 651.371094 L 538.132812 644.746094 C 538.089844 644.738281 538.039062 644.726562 537.992188 644.707031 C 535.667969 643.929688 533.394531 643.6875 531.226562 643.984375 L 472.933594 656.488281 L 470.667969 687.972656 L 525.152344 660.933594 C 525.636719 660.695312 526.21875 660.761719 526.632812 661.113281 Z M 469.128906 691.640625 C 468.859375 691.640625 468.59375 691.558594 468.363281 691.402344 C 467.957031 691.128906 467.726562 690.660156 467.765625 690.171875 L 470.277344 655.265625 C 470.324219 654.65625 470.757812 654.152344 471.355469 654.023438 L 530.699219 641.292969 C 530.730469 641.289062 530.761719 641.28125 530.796875 641.277344 C 533.375 640.910156 536.066406 641.183594 538.792969 642.085938 L 571.121094 649.203125 C 571.59375 649.304688 571.96875 649.640625 572.125 650.089844 C 572.28125 650.539062 572.195312 651.035156 571.894531 651.40625 C 571.617188 651.746094 565.550781 659.113281 558.472656 660.859375 C 561.160156 665.273438 562.914062 669.0625 563.558594 670.527344 C 566.457031 671.253906 577.75 674.117188 580.445312 675.320312 C 580.847656 675.5 581.277344 675.683594 581.726562 675.867188 C 584.652344 677.113281 588.292969 678.660156 590.308594 681.65625 C 592.621094 685.089844 592.390625 690.035156 592.378906 690.246094 C 592.363281 690.609375 592.199219 690.953125 591.925781 691.195312 C 591.652344 691.4375 591.296875 691.558594 590.925781 691.539062 L 556.535156 689.375 C 556.246094 689.359375 555.964844 689.25 555.742188 689.0625 L 525.566406 663.785156 L 469.738281 691.492188 C 469.546875 691.589844 469.332031 691.640625 469.128906 691.640625 " fill-opacity="1" fill-rule="nonzero"/><path fill="#5479f7" d="M 529.347656 672.167969 C 529.347656 672.167969 508.8125 640.203125 508.78125 640.160156 C 507.164062 637.644531 493.660156 641.660156 491.164062 641.804688 C 482.207031 642.320312 472.894531 640.863281 463.96875 639.871094 C 444.910156 637.757812 425.953125 634.691406 407.199219 630.679688 C 391.882812 627.40625 376.476562 623.421875 362.910156 615.601562 C 345.039062 605.304688 335.664062 589.261719 328.507812 570.546875 C 323.101562 556.40625 316.652344 544.585938 308.585938 531.636719 C 296.644531 512.476562 276.816406 496.75 260.359375 488.582031 C 234.792969 475.898438 205.0625 469.769531 176.734375 475.421875 C 122.070312 486.332031 84.683594 518.203125 84.683594 518.203125 C 54.945312 541.957031 0.0078125 624.773438 19.59375 664.652344 C 43.617188 713.558594 108.367188 684.945312 108.367188 684.945312 C 108.367188 684.945312 114.65625 695.210938 101.144531 726.433594 C 84.734375 764.363281 108.515625 769.4375 108.515625 769.4375 C 163.789062 796.472656 310.21875 790.425781 297.730469 760.242188 C 284.363281 727.929688 284.140625 686.96875 284.140625 686.96875 C 302.613281 705.242188 342.628906 709.105469 342.628906 709.105469 C 342.628906 709.105469 376.40625 712.300781 397.863281 708.648438 C 517.910156 690.839844 529.347656 672.167969 529.347656 672.167969 " fill-opacity="1" fill-rule="nonzero"/><path fill="#000000" d="M 109.195312 661.089844 C 108.628906 661.089844 108.097656 660.734375 107.902344 660.167969 C 89.601562 607.203125 98.101562 564.421875 98.191406 563.996094 C 98.34375 563.253906 99.074219 562.777344 99.808594 562.929688 C 100.546875 563.082031 101.023438 563.808594 100.871094 564.550781 C 100.785156 564.96875 92.449219 607.058594 110.492188 659.273438 C 110.738281 659.988281 110.359375 660.765625 109.644531 661.015625 C 109.496094 661.066406 109.34375 661.089844 109.195312 661.089844 " fill-opacity="1" fill-rule="nonzero"/><path fill="#000000" d="M 283.054688 688.625 C 282.710938 688.625 282.363281 688.496094 282.097656 688.234375 C 253.492188 660.289062 233.574219 595.378906 232.742188 592.628906 C 232.523438 591.90625 232.929688 591.140625 233.65625 590.921875 C 234.382812 590.699219 235.144531 591.113281 235.363281 591.835938 C 235.566406 592.5 255.910156 658.824219 284.011719 686.273438 C 284.550781 686.804688 284.5625 687.667969 284.035156 688.210938 C 283.765625 688.484375 283.410156 688.625 283.054688 688.625 " fill-opacity="1" fill-rule="nonzero"/><path fill="#ffffff" d="M 207.949219 345.90625 C 218.996094 345.957031 229.175781 351.933594 234.722656 361.488281 C 237.292969 365.914062 239.628906 370.042969 240.097656 371.210938 C 241.175781 373.867188 243.542969 382.78125 252.222656 391.375 C 253.082031 392.226562 253.203125 393.570312 252.460938 394.519531 L 246.898438 401.636719 C 246.515625 402.128906 246.355469 402.753906 246.460938 403.367188 C 247.125 407.164062 250.4375 420.941406 249.457031 423.425781 C 247.382812 428.695312 234.789062 430.121094 231.054688 430.433594 C 230.355469 430.488281 229.730469 430.882812 229.390625 431.496094 C 228.183594 433.683594 224.988281 439.941406 222.371094 455.550781 C 218.378906 479.332031 241.042969 483.03125 236.425781 485.363281 C 204.222656 501.621094 144.921875 497.925781 148.363281 491.164062 C 151.191406 485.601562 183.730469 471.199219 186.757812 432.078125 C 188.644531 407.679688 154.488281 405.675781 179.101562 359.234375 C 184.820312 348.441406 197.203125 345.855469 207.949219 345.90625 " fill-opacity="1" fill-rule="nonzero"/><path fill="#000000" d="M 149.625 491.703125 C 149.769531 491.878906 150.292969 492.355469 151.960938 492.933594 C 163.535156 496.96875 207.863281 497.886719 235.175781 484.457031 C 234.738281 484.109375 234.125 483.679688 233.59375 483.308594 C 228.578125 479.796875 218.136719 472.5 221.019531 455.320312 C 222.863281 444.34375 225.277344 436.101562 228.195312 430.832031 C 228.753906 429.824219 229.78125 429.160156 230.941406 429.066406 C 238.011719 428.480469 246.765625 426.515625 248.183594 422.921875 C 248.785156 421.347656 246.765625 411.667969 245.902344 407.535156 C 245.5625 405.902344 245.269531 404.488281 245.113281 403.601562 C 244.941406 402.613281 245.199219 401.585938 245.820312 400.792969 L 251.382812 393.675781 C 251.6875 393.28125 251.636719 392.722656 251.261719 392.351562 C 243.480469 384.648438 240.660156 376.78125 239.304688 373 C 239.117188 372.484375 238.964844 372.054688 238.828125 371.722656 C 238.617188 371.191406 237.640625 369.25 233.539062 362.175781 C 228.234375 353.03125 218.425781 347.324219 207.941406 347.273438 C 207.847656 347.273438 207.753906 347.273438 207.65625 347.273438 C 198.160156 347.273438 185.816406 349.484375 180.308594 359.878906 C 165.082031 388.613281 172.738281 399.621094 180.140625 410.265625 C 184.421875 416.417969 188.847656 422.785156 188.121094 432.179688 C 185.75 462.835938 165.894531 478.390625 155.226562 486.75 C 152.542969 488.851562 150.21875 490.671875 149.625 491.703125 Z M 176.792969 498.261719 C 162.042969 498.261719 150.417969 496.386719 147.742188 493.703125 C 146.8125 492.773438 146.59375 491.617188 147.140625 490.542969 C 147.933594 488.980469 150.164062 487.234375 153.539062 484.589844 C 163.871094 476.496094 183.113281 461.425781 185.390625 431.96875 C 186.042969 423.542969 182.082031 417.855469 177.890625 411.828125 C 170.386719 401.039062 161.878906 388.808594 177.890625 358.59375 C 182.765625 349.390625 193.054688 344.53125 207.648438 344.53125 C 207.75 344.53125 207.851562 344.53125 207.957031 344.53125 C 219.40625 344.585938 230.117188 350.824219 235.90625 360.804688 C 240.71875 369.097656 241.207031 370.300781 241.367188 370.691406 C 241.511719 371.046875 241.679688 371.515625 241.878906 372.078125 C 243.167969 375.667969 245.851562 383.136719 253.1875 390.402344 C 254.546875 391.75 254.695312 393.882812 253.539062 395.363281 L 247.976562 402.480469 C 247.828125 402.667969 247.769531 402.898438 247.8125 403.128906 C 247.957031 403.976562 248.25 405.363281 248.585938 406.976562 C 250.609375 416.691406 251.5 421.980469 250.730469 423.925781 C 248.4375 429.753906 236.285156 431.371094 231.171875 431.796875 C 230.921875 431.816406 230.703125 431.953125 230.589844 432.160156 C 227.140625 438.386719 224.953125 448.4375 223.71875 455.773438 C 221.125 471.238281 230.257812 477.632812 235.164062 481.0625 C 237.253906 482.523438 238.515625 483.402344 238.414062 484.792969 C 238.378906 485.316406 238.109375 486.046875 237.042969 486.585938 C 220.109375 495.132812 195.84375 498.261719 176.792969 498.261719 " fill-opacity="1" fill-rule="nonzero"/><path fill="#000000" d="M 226.726562 383.515625 L 239.609375 367.382812 C 246.21875 359.109375 243.910156 346.917969 234.757812 341.585938 C 232.226562 340.101562 229.246094 338.558594 225.917969 337.125 C 192.832031 322.871094 154.921875 346.390625 154.886719 382.425781 C 154.871094 397.175781 164.730469 414.273438 185.679688 429.46875 C 185.679688 429.46875 200.398438 417.855469 200.210938 405.292969 C 200.210938 405.292969 189.53125 392.613281 204.582031 386.199219 C 207.464844 384.96875 210.753906 385.066406 213.566406 386.449219 C 218.097656 388.683594 223.570312 387.464844 226.726562 383.515625 " fill-opacity="1" fill-rule="nonzero"/><path fill="#000000" d="M 207.097656 412.4375 C 202.816406 412.4375 197.347656 410.609375 193.285156 402.921875 C 192.929688 402.253906 193.1875 401.421875 193.855469 401.070312 C 194.523438 400.714844 195.351562 400.972656 195.707031 401.640625 C 202.121094 413.773438 212.191406 408.726562 212.613281 408.507812 C 213.285156 408.15625 214.113281 408.417969 214.460938 409.085938 C 214.8125 409.753906 214.554688 410.578125 213.890625 410.929688 C 213.828125 410.964844 210.941406 412.4375 207.097656 412.4375 " fill-opacity="1" fill-rule="nonzero"/><path fill="#000000" d="M 172.128906 348.21875 C 172.128906 348.21875 160.957031 309.554688 120.195312 316.835938 C 94.75 321.375 72.523438 338.484375 60.316406 366.394531 C 51.28125 387.050781 51.65625 405.332031 49.667969 426.984375 C 47.890625 446.347656 30.652344 459.28125 26.746094 477.699219 C 21.980469 500.179688 43.851562 516.394531 64.929688 512.214844 C 88.472656 507.550781 110.316406 482.929688 119.957031 462.300781 C 129.917969 440.980469 131.5625 417.300781 136.601562 394.613281 C 138.785156 384.789062 140.433594 371.214844 148.257812 364.410156 C 152.269531 360.914062 165.476562 360.53125 167.765625 356.296875 C 167.769531 356.292969 172.128906 348.21875 172.128906 348.21875 " fill-opacity="1" fill-rule="nonzero"/></svg>