<svg xmlns="http://www.w3.org/2000/svg" xmlns:xlink="http://www.w3.org/1999/xlink" width="1080" zoomAndPan="magnify" viewBox="0 0 810 809.999993" height="1080" preserveAspectRatio="xMidYMid meet" version="1.0"><defs><clipPath id="e1744f79aa"><path d="M 245 247 L 565 247 L 565 566.109375 L 245 566.109375 Z M 245 247 " clip-rule="nonzero"/></clipPath><clipPath id="2a2936a0a4"><path d="M 127 674 L 412 674 L 412 675.414062 L 127 675.414062 Z M 127 674 " clip-rule="nonzero"/></clipPath><clipPath id="962b3c002d"><path d="M 268 134.664062 L 398 134.664062 L 398 316 L 268 316 Z M 268 134.664062 " clip-rule="nonzero"/></clipPath><clipPath id="bc060aae2b"><path d="M 396 134.664062 L 398 134.664062 L 398 496 L 396 496 Z M 396 134.664062 " clip-rule="nonzero"/></clipPath><clipPath id="33eca978c0"><path d="M 268 134.664062 L 271 134.664062 L 271 496 L 268 496 Z M 268 134.664062 " clip-rule="nonzero"/></clipPath><clipPath id="5e0f531e0b"><path d="M 0 494 L 398 494 L 398 675.414062 L 0 675.414062 Z M 0 494 " clip-rule="nonzero"/></clipPath><clipPath id="d009611ab5"><path d="M 0 134.664062 L 398 134.664062 L 398 316 L 0 316 Z M 0 134.664062 " clip-rule="nonzero"/></clipPath><clipPath id="fb616a5fcd"><path d="M 0 314 L 130 314 L 130 675.414062 L 0 675.414062 Z M 0 314 " clip-rule="nonzero"/></clipPath><clipPath id="448d797bc9"><path d="M 663 134.664062 L 810 134.664062 L 810 212 L 663 212 Z M 663 134.664062 " clip-rule="nonzero"/></clipPath></defs><g clip-path="url(#e1744f79aa)"><path fill="#ffffff" d="M 563.476562 423.476562 C 559.023438 465.796875 538.351562 503.851562 505.277344 530.628906 C 476.640625 553.808594 441.667969 566.136719 405.332031 566.136719 C 399.699219 566.136719 394.035156 565.839844 388.351562 565.242188 C 360.148438 562.273438 333.589844 551.996094 310.941406 535.382812 L 314.257812 547 C 315.035156 549.730469 313.453125 552.574219 310.726562 553.351562 C 310.253906 553.488281 309.78125 553.550781 309.3125 553.550781 C 307.074219 553.550781 305.015625 552.078125 304.371094 549.820312 L 296.570312 522.46875 C 296.136719 520.949219 296.425781 519.3125 297.355469 518.035156 C 298.28125 516.757812 299.75 515.976562 301.328125 515.921875 L 329.753906 514.898438 C 332.609375 514.785156 334.972656 517.015625 335.074219 519.851562 C 335.175781 522.6875 332.960938 525.070312 330.121094 525.171875 L 315.167969 525.710938 C 336.746094 542.0625 362.269531 552.160156 389.429688 555.019531 C 429.019531 559.1875 467.867188 547.6875 498.808594 522.640625 C 529.75 497.589844 549.085938 461.992188 553.253906 422.398438 C 556.59375 390.6875 549.902344 359.402344 533.902344 331.921875 C 532.472656 329.472656 533.304688 326.324219 535.757812 324.894531 C 538.207031 323.464844 541.355469 324.296875 542.785156 326.75 C 559.890625 356.128906 567.046875 389.578125 563.476562 423.476562 Z M 256.808594 391.195312 C 265.414062 309.464844 338.898438 249.96875 420.632812 258.574219 C 447.808594 261.433594 473.316406 271.527344 494.902344 287.882812 L 479.941406 288.421875 C 477.105469 288.523438 474.886719 290.90625 474.988281 293.742188 C 475.089844 296.515625 477.367188 298.699219 480.121094 298.699219 C 480.183594 298.699219 480.246094 298.699219 480.308594 298.695312 L 508.738281 297.675781 C 510.316406 297.617188 511.78125 296.835938 512.710938 295.558594 C 513.636719 294.28125 513.929688 292.648438 513.496094 291.128906 L 505.691406 263.773438 C 504.910156 261.042969 502.066406 259.460938 499.335938 260.242188 C 496.609375 261.019531 495.027344 263.863281 495.804688 266.59375 L 499.121094 278.210938 C 476.46875 261.59375 449.929688 251.324219 421.710938 248.351562 C 379.386719 243.894531 337.863281 256.191406 304.789062 282.964844 C 271.710938 309.742188 251.042969 347.796875 246.585938 390.117188 C 243.019531 424.011719 250.175781 457.457031 267.277344 486.839844 C 268.234375 488.480469 269.957031 489.398438 271.726562 489.398438 C 272.601562 489.398438 273.492188 489.171875 274.304688 488.699219 C 276.757812 487.269531 277.589844 484.125 276.164062 481.671875 C 260.164062 454.1875 253.472656 422.902344 256.808594 391.195312 Z M 299.90625 434.6875 L 282.378906 427.945312 C 280.394531 427.179688 279.085938 425.273438 279.085938 423.148438 L 279.085938 390.449219 C 279.085938 388.320312 280.394531 386.414062 282.378906 385.652344 L 299.90625 378.902344 C 302.386719 369.542969 306.101562 360.582031 310.980469 352.199219 L 303.347656 335.019531 C 302.484375 333.078125 302.90625 330.804688 304.410156 329.300781 L 327.53125 306.179688 C 329.035156 304.675781 331.308594 304.25 333.253906 305.113281 L 350.433594 312.746094 C 358.820312 307.867188 367.78125 304.152344 377.136719 301.675781 L 383.886719 284.144531 C 384.648438 282.160156 386.554688 280.851562 388.683594 280.851562 L 421.382812 280.851562 C 423.507812 280.851562 425.414062 282.160156 426.179688 284.144531 L 432.925781 301.675781 C 442.28125 304.152344 451.242188 307.867188 459.628906 312.746094 L 476.808594 305.113281 C 478.753906 304.25 481.027344 304.675781 482.53125 306.179688 L 505.652344 329.300781 C 507.15625 330.800781 507.578125 333.078125 506.714844 335.019531 L 499.085938 352.195312 C 503.964844 360.578125 507.679688 369.542969 510.160156 378.90625 L 527.6875 385.652344 C 529.667969 386.414062 530.980469 388.320312 530.980469 390.449219 L 530.980469 423.144531 C 530.980469 425.273438 529.667969 427.179688 527.6875 427.941406 L 510.152344 434.691406 C 507.675781 444.046875 503.960938 453.007812 499.082031 461.394531 L 506.714844 478.574219 C 507.578125 480.515625 507.15625 482.789062 505.652344 484.292969 L 482.53125 507.414062 C 481.027344 508.917969 478.75 509.339844 476.808594 508.476562 L 459.636719 500.851562 C 451.25 505.730469 442.289062 509.445312 432.925781 511.921875 L 426.179688 529.449219 C 425.414062 531.433594 423.507812 532.742188 421.382812 532.742188 L 388.683594 532.742188 C 386.554688 532.742188 384.648438 531.433594 383.886719 529.449219 L 377.136719 511.917969 C 367.78125 509.441406 358.820312 505.726562 350.4375 500.847656 L 333.253906 508.476562 C 331.3125 509.339844 329.039062 508.917969 327.535156 507.414062 L 304.414062 484.292969 C 302.910156 482.789062 302.488281 480.515625 303.351562 478.574219 L 310.976562 461.398438 C 306.097656 453.015625 302.382812 444.050781 299.90625 434.6875 Z M 289.363281 419.617188 L 306.085938 426.054688 C 307.667969 426.664062 308.847656 428.011719 309.238281 429.660156 C 311.652344 439.804688 315.652344 449.457031 321.132812 458.355469 C 322.023438 459.796875 322.144531 461.585938 321.457031 463.136719 L 314.175781 479.523438 L 332.308594 497.652344 L 348.703125 490.371094 C 350.25 489.683594 352.039062 489.804688 353.480469 490.691406 C 362.382812 496.171875 372.03125 500.171875 382.167969 502.585938 C 383.816406 502.976562 385.164062 504.15625 385.773438 505.738281 L 392.210938 522.464844 L 417.851562 522.464844 L 424.289062 505.746094 C 424.898438 504.164062 426.246094 502.984375 427.894531 502.589844 C 438.039062 500.175781 447.691406 496.175781 456.585938 490.695312 C 458.03125 489.808594 459.820312 489.6875 461.367188 490.375 L 477.753906 497.652344 L 495.886719 479.523438 L 488.605469 463.128906 C 487.917969 461.578125 488.039062 459.789062 488.925781 458.347656 C 494.40625 449.449219 498.40625 439.800781 500.820312 429.664062 C 501.210938 428.015625 502.390625 426.664062 503.972656 426.054688 L 520.699219 419.617188 L 520.699219 393.976562 L 503.976562 387.539062 C 502.398438 386.933594 501.21875 385.582031 500.824219 383.933594 C 498.410156 373.792969 494.410156 364.136719 488.929688 355.242188 C 488.039062 353.796875 487.921875 352.007812 488.609375 350.460938 L 495.886719 334.074219 L 477.753906 315.941406 L 461.363281 323.222656 C 459.816406 323.910156 458.023438 323.792969 456.582031 322.902344 C 447.683594 317.421875 438.03125 313.421875 427.898438 311.011719 C 426.25 310.617188 424.898438 309.4375 424.289062 307.855469 L 417.851562 291.128906 L 392.210938 291.128906 L 385.773438 307.855469 C 385.164062 309.4375 383.816406 310.617188 382.167969 311.011719 C 372.03125 313.421875 362.378906 317.421875 353.480469 322.902344 C 352.039062 323.792969 350.25 323.910156 348.703125 323.222656 L 332.308594 315.941406 L 314.175781 334.074219 L 321.457031 350.464844 C 322.144531 352.015625 322.023438 353.800781 321.136719 355.246094 C 315.65625 364.144531 311.65625 373.796875 309.242188 383.933594 C 308.851562 385.582031 307.671875 386.933594 306.089844 387.539062 L 289.363281 393.976562 Z M 321.667969 406.796875 C 321.667969 360.832031 359.066406 323.433594 405.03125 323.433594 C 451 323.433594 488.394531 360.832031 488.394531 406.796875 C 488.394531 452.761719 451 490.160156 405.03125 490.160156 C 359.066406 490.160156 321.667969 452.761719 321.667969 406.796875 Z M 331.949219 406.796875 C 331.949219 447.09375 364.734375 479.878906 405.03125 479.878906 C 445.332031 479.878906 478.117188 447.09375 478.117188 406.796875 C 478.117188 366.5 445.332031 333.714844 405.03125 333.714844 C 364.734375 333.714844 331.949219 366.5 331.949219 406.796875 Z M 354.054688 378.558594 C 351.21875 378.558594 348.914062 376.257812 348.914062 373.417969 C 348.914062 370.582031 351.21875 368.277344 354.054688 368.277344 L 371.929688 368.277344 C 374.269531 368.277344 376.316406 369.863281 376.902344 372.132812 L 394.496094 440.097656 C 398.816406 440.539062 402.589844 442.859375 404.988281 446.222656 L 450.199219 434.109375 C 450.9375 433.910156 451.714844 433.882812 452.46875 434.019531 L 460.953125 435.597656 C 463.742188 436.113281 465.585938 438.796875 465.066406 441.589844 C 464.546875 444.378906 461.871094 446.21875 459.074219 445.703125 L 451.734375 444.339844 L 407.65625 456.152344 C 406.953125 463.628906 400.644531 469.503906 392.984375 469.503906 C 384.855469 469.503906 378.242188 462.890625 378.242188 454.761719 C 378.242188 449.769531 380.738281 445.351562 384.546875 442.683594 L 367.949219 378.558594 Z M 392.980469 450.300781 C 390.519531 450.300781 388.519531 452.300781 388.519531 454.761719 C 388.519531 457.222656 390.519531 459.226562 392.980469 459.226562 C 395.441406 459.226562 397.445312 457.222656 397.445312 454.761719 C 397.445312 452.300781 395.441406 450.300781 392.980469 450.300781 Z M 434.15625 383.113281 C 435.472656 382.761719 436.875 382.945312 438.054688 383.628906 C 439.238281 384.308594 440.097656 385.429688 440.453125 386.75 L 449.648438 421.066406 C 450.382812 423.808594 448.753906 426.628906 446.011719 427.363281 L 406.707031 437.894531 C 406.269531 438.011719 405.824219 438.070312 405.378906 438.070312 C 404.484375 438.070312 403.597656 437.835938 402.808594 437.378906 C 401.628906 436.699219 400.765625 435.574219 400.414062 434.257812 L 391.21875 399.941406 C 390.484375 397.199219 392.113281 394.378906 394.851562 393.644531 Z M 431.851562 394.375 L 422.128906 396.980469 L 423.253906 401.167969 C 423.988281 403.910156 422.359375 406.730469 419.617188 407.464844 C 419.171875 407.585938 418.726562 407.640625 418.285156 407.640625 C 416.015625 407.640625 413.9375 406.125 413.324219 403.828125 L 412.199219 399.636719 L 402.476562 402.242188 L 409.011719 426.632812 L 438.386719 418.761719 Z M 380.273438 359.09375 C 379.539062 356.351562 381.167969 353.53125 383.90625 352.796875 L 415.75 344.265625 C 417.066406 343.914062 418.46875 344.097656 419.648438 344.777344 C 420.832031 345.460938 421.691406 346.582031 422.046875 347.898438 L 429.496094 375.703125 C 430.230469 378.445312 428.601562 381.265625 425.859375 382 L 394.019531 390.53125 C 393.582031 390.648438 393.132812 390.707031 392.6875 390.707031 C 391.792969 390.707031 390.90625 390.472656 390.117188 390.015625 C 388.9375 389.335938 388.078125 388.210938 387.722656 386.894531 Z M 391.53125 361.394531 L 396.324219 379.269531 L 418.234375 373.398438 L 413.445312 355.523438 L 407.453125 357.128906 L 408.109375 359.582031 C 408.847656 362.324219 407.21875 365.144531 404.476562 365.878906 C 404.03125 365.996094 403.582031 366.054688 403.144531 366.054688 C 400.875 366.054688 398.796875 364.539062 398.179688 362.242188 L 397.523438 359.789062 Z M 391.53125 361.394531 " fill-opacity="1" fill-rule="nonzero"/></g><path fill="#ffffff" d="M 533.679688 200.527344 L 773.515625 200.527344 L 773.515625 490.363281 L 533.679688 490.363281 Z M 533.679688 200.527344 " fill-opacity="1" fill-rule="nonzero"/><path fill="#000000" d="M 773.515625 491.011719 L 533.679688 491.011719 C 533.324219 491.011719 533.027344 490.71875 533.027344 490.363281 L 533.027344 200.527344 C 533.027344 200.171875 533.324219 199.878906 533.679688 199.878906 L 773.515625 199.878906 C 773.695312 199.878906 773.84375 199.9375 773.988281 200.054688 C 774.109375 200.171875 774.167969 200.351562 774.167969 200.527344 L 774.167969 490.363281 C 774.167969 490.539062 774.109375 490.6875 773.988281 490.835938 C 773.84375 490.953125 773.695312 491.011719 773.515625 491.011719 Z M 534.328125 489.714844 L 772.867188 489.714844 L 772.867188 201.175781 L 534.328125 201.175781 Z M 534.328125 489.714844 " fill-opacity="1" fill-rule="nonzero"/><path fill="#000000" d="M 746.015625 251.90625 L 712.191406 251.90625 C 711.835938 251.90625 711.542969 251.609375 711.542969 251.257812 C 711.542969 250.902344 711.835938 250.605469 712.191406 250.605469 L 746.015625 250.605469 C 746.371094 250.605469 746.664062 250.902344 746.664062 251.257812 C 746.664062 251.609375 746.371094 251.90625 746.015625 251.90625 Z M 746.015625 251.90625 " fill-opacity="1" fill-rule="nonzero"/><path fill="#000000" d="M 705.691406 251.90625 L 673.167969 251.90625 C 672.8125 251.90625 672.519531 251.609375 672.519531 251.257812 C 672.519531 250.902344 672.8125 250.605469 673.167969 250.605469 L 705.691406 250.605469 C 706.046875 250.605469 706.34375 250.902344 706.34375 251.257812 C 706.34375 251.609375 706.046875 251.90625 705.691406 251.90625 Z M 705.691406 251.90625 " fill-opacity="1" fill-rule="nonzero"/><path fill="#000000" d="M 666.640625 251.90625 L 643.863281 251.90625 C 643.511719 251.90625 643.214844 251.609375 643.214844 251.257812 C 643.214844 250.902344 643.511719 250.605469 643.863281 250.605469 L 666.640625 250.605469 C 666.996094 250.605469 667.289062 250.902344 667.289062 251.257812 C 667.289062 251.609375 666.996094 251.90625 666.640625 251.90625 Z M 666.640625 251.90625 " fill-opacity="1" fill-rule="nonzero"/><path fill="#000000" d="M 739.488281 273.472656 L 726.636719 273.472656 C 726.28125 273.472656 725.988281 273.179688 725.988281 272.824219 C 725.988281 272.46875 726.28125 272.171875 726.636719 272.171875 L 739.488281 272.171875 C 739.839844 272.171875 740.136719 272.46875 740.136719 272.824219 C 740.136719 273.179688 739.871094 273.472656 739.488281 273.472656 Z M 739.488281 273.472656 " fill-opacity="1" fill-rule="nonzero"/><path fill="#000000" d="M 720.109375 273.472656 L 664.367188 273.472656 C 664.011719 273.472656 663.714844 273.179688 663.714844 272.824219 C 663.714844 272.46875 664.011719 272.171875 664.367188 272.171875 L 720.109375 272.171875 C 720.460938 272.171875 720.757812 272.46875 720.757812 272.824219 C 720.757812 273.179688 720.492188 273.472656 720.109375 273.472656 Z M 720.109375 273.472656 " fill-opacity="1" fill-rule="nonzero"/><path fill="#000000" d="M 657.867188 273.472656 L 637.335938 273.472656 C 636.980469 273.472656 636.6875 273.179688 636.6875 272.824219 C 636.6875 272.46875 636.980469 272.171875 637.335938 272.171875 L 657.867188 272.171875 C 658.222656 272.171875 658.515625 272.46875 658.515625 272.824219 C 658.515625 273.179688 658.222656 273.472656 657.867188 273.472656 Z M 657.867188 273.472656 " fill-opacity="1" fill-rule="nonzero"/><path fill="#000000" d="M 746.015625 295.042969 L 691.839844 295.042969 C 691.484375 295.042969 691.1875 294.746094 691.1875 294.390625 C 691.1875 294.035156 691.484375 293.742188 691.839844 293.742188 L 746.015625 293.742188 C 746.371094 293.742188 746.664062 294.035156 746.664062 294.390625 C 746.664062 294.746094 746.371094 295.042969 746.015625 295.042969 Z M 746.015625 295.042969 " fill-opacity="1" fill-rule="nonzero"/><path fill="#000000" d="M 685.308594 295.042969 L 637.335938 295.042969 C 636.980469 295.042969 636.6875 294.746094 636.6875 294.390625 C 636.6875 294.035156 636.980469 293.742188 637.335938 293.742188 L 685.308594 293.742188 C 685.664062 293.742188 685.960938 294.035156 685.960938 294.390625 C 685.960938 294.746094 685.664062 295.042969 685.308594 295.042969 Z M 685.308594 295.042969 " fill-opacity="1" fill-rule="nonzero"/><path fill="#000000" d="M 691.425781 329.785156 L 613.023438 329.785156 C 612.667969 329.785156 612.375 329.492188 612.375 329.136719 C 612.375 328.78125 612.667969 328.488281 613.023438 328.488281 L 691.425781 328.488281 C 691.777344 328.488281 692.074219 328.78125 692.074219 329.136719 C 692.074219 329.492188 691.777344 329.785156 691.425781 329.785156 Z M 691.425781 329.785156 " fill-opacity="1" fill-rule="nonzero"/><path fill="#000000" d="M 746.015625 358.148438 L 652.460938 358.148438 C 652.105469 358.148438 651.8125 357.855469 651.8125 357.5 C 651.8125 357.144531 652.105469 356.851562 652.460938 356.851562 L 746.015625 356.851562 C 746.371094 356.851562 746.664062 357.144531 746.664062 357.5 C 746.664062 357.855469 746.371094 358.148438 746.015625 358.148438 Z M 746.015625 358.148438 " fill-opacity="1" fill-rule="nonzero"/><path fill="#000000" d="M 641.234375 358.148438 L 558.433594 358.148438 C 558.078125 358.148438 557.785156 357.855469 557.785156 357.5 C 557.785156 357.144531 558.078125 356.851562 558.433594 356.851562 L 641.234375 356.851562 C 641.589844 356.851562 641.886719 357.144531 641.886719 357.5 C 641.886719 357.855469 641.589844 358.148438 641.234375 358.148438 Z M 641.234375 358.148438 " fill-opacity="1" fill-rule="nonzero"/><path fill="#000000" d="M 746.015625 380.515625 L 671.042969 380.515625 C 670.6875 380.515625 670.390625 380.21875 670.390625 379.863281 C 670.390625 379.511719 670.6875 379.214844 671.042969 379.214844 L 746.015625 379.214844 C 746.371094 379.214844 746.664062 379.511719 746.664062 379.863281 C 746.664062 380.21875 746.371094 380.515625 746.015625 380.515625 Z M 746.015625 380.515625 " fill-opacity="1" fill-rule="nonzero"/><path fill="#000000" d="M 659.785156 380.515625 L 609.480469 380.515625 C 609.125 380.515625 608.828125 380.21875 608.828125 379.863281 C 608.828125 379.511719 609.125 379.214844 609.480469 379.214844 L 659.785156 379.214844 C 660.140625 379.214844 660.4375 379.511719 660.4375 379.863281 C 660.4375 380.21875 660.140625 380.515625 659.785156 380.515625 Z M 659.785156 380.515625 " fill-opacity="1" fill-rule="nonzero"/><path fill="#000000" d="M 598.222656 380.515625 L 558.402344 380.515625 C 558.050781 380.515625 557.753906 380.21875 557.753906 379.863281 C 557.753906 379.511719 558.050781 379.214844 558.402344 379.214844 L 598.222656 379.214844 C 598.578125 379.214844 598.875 379.511719 598.875 379.863281 C 598.875 380.21875 598.578125 380.515625 598.222656 380.515625 Z M 598.222656 380.515625 " fill-opacity="1" fill-rule="nonzero"/><path fill="#000000" d="M 623.628906 402.851562 L 558.402344 402.851562 C 558.050781 402.851562 557.753906 402.554688 557.753906 402.203125 C 557.753906 401.847656 558.050781 401.550781 558.402344 401.550781 L 623.628906 401.550781 C 623.984375 401.550781 624.277344 401.847656 624.277344 402.203125 C 624.277344 402.554688 623.984375 402.851562 623.628906 402.851562 Z M 623.628906 402.851562 " fill-opacity="1" fill-rule="nonzero"/><path fill="#e2eaff" d="M 558.609375 244.816406 L 620.378906 244.816406 L 620.378906 306.503906 L 558.609375 306.503906 Z M 558.609375 244.816406 " fill-opacity="1" fill-rule="nonzero"/><path fill="#ffffff" d="M 684.570312 190.066406 C 682.179688 190.066406 680.289062 188.117188 680.289062 185.726562 C 680.289062 185.695312 680.289062 185.695312 680.289062 185.667969 C 680.289062 171.75 668.972656 160.464844 655 160.464844 C 641.027344 160.464844 629.714844 171.75 629.714844 185.667969 C 629.714844 185.695312 629.714844 185.695312 629.714844 185.726562 C 629.714844 188.117188 627.824219 190.066406 625.429688 190.066406 L 606.554688 190.066406 C 603.71875 190.066406 601.414062 192.371094 601.414062 195.179688 L 601.414062 208.859375 C 601.414062 211.695312 603.71875 213.96875 606.554688 213.96875 L 703.449219 213.96875 C 706.285156 213.96875 708.585938 211.664062 708.585938 208.859375 L 708.585938 195.179688 C 708.585938 192.34375 706.285156 190.066406 703.449219 190.066406 Z M 655 200.085938 C 647.023438 200.085938 640.554688 193.644531 640.554688 185.695312 C 640.554688 177.75 647.023438 171.308594 655 171.308594 C 662.976562 171.308594 669.445312 177.75 669.445312 185.695312 C 669.445312 193.644531 662.976562 200.085938 655 200.085938 Z M 655 200.085938 " fill-opacity="1" fill-rule="nonzero"/><path fill="#000000" d="M 703.476562 214.648438 L 606.585938 214.648438 C 603.394531 214.648438 600.792969 212.050781 600.792969 208.886719 L 600.792969 195.210938 C 600.792969 192.019531 603.394531 189.449219 606.585938 189.449219 L 625.460938 189.449219 C 626.433594 189.449219 627.320312 189.0625 628.03125 188.382812 C 628.738281 187.675781 629.125 186.757812 629.09375 185.753906 C 629.09375 171.453125 640.734375 159.84375 655.03125 159.84375 C 669.328125 159.84375 680.96875 171.453125 680.96875 185.695312 C 680.96875 186.730469 681.351562 187.675781 682.03125 188.382812 C 682.710938 189.0625 683.625 189.449219 684.601562 189.449219 L 703.476562 189.449219 C 706.667969 189.449219 709.265625 192.046875 709.265625 195.210938 L 709.265625 208.886719 C 709.238281 212.050781 706.636719 214.648438 703.476562 214.648438 Z M 606.554688 190.71875 C 604.074219 190.71875 602.066406 192.726562 602.066406 195.179688 L 602.066406 208.859375 C 602.066406 211.3125 604.074219 213.320312 606.554688 213.320312 L 703.449219 213.320312 C 705.929688 213.320312 707.9375 211.3125 707.9375 208.859375 L 707.9375 195.179688 C 707.9375 192.726562 705.929688 190.71875 703.449219 190.71875 L 684.570312 190.71875 C 683.242188 190.71875 682.03125 190.214844 681.085938 189.269531 C 680.140625 188.324219 679.636719 187.054688 679.636719 185.726562 C 679.636719 172.132812 668.589844 161.113281 655 161.113281 C 641.414062 161.113281 630.363281 172.132812 630.363281 185.667969 C 630.363281 187.054688 629.863281 188.324219 628.917969 189.269531 C 628 190.1875 626.761719 190.71875 625.429688 190.71875 Z M 655 200.734375 C 646.671875 200.734375 639.90625 193.996094 639.90625 185.695312 C 639.90625 177.394531 646.671875 170.65625 655 170.65625 C 663.332031 170.65625 670.097656 177.394531 670.097656 185.695312 C 670.097656 193.996094 663.332031 200.734375 655 200.734375 Z M 655 171.957031 C 647.410156 171.957031 641.207031 178.132812 641.207031 185.695312 C 641.207031 193.289062 647.378906 199.433594 655 199.433594 C 662.59375 199.433594 668.796875 193.257812 668.796875 185.695312 C 668.796875 178.101562 662.621094 171.957031 655 171.957031 Z M 655 171.957031 " fill-opacity="1" fill-rule="nonzero"/><path fill="#ffffff" d="M 560.460938 175.679688 C 561.339844 176.558594 562.171875 177.476562 562.960938 178.4375 C 563.746094 179.398438 564.484375 180.390625 565.175781 181.425781 C 565.867188 182.457031 566.503906 183.519531 567.089844 184.617188 C 567.671875 185.710938 568.203125 186.832031 568.679688 187.976562 C 569.152344 189.125 569.570312 190.292969 569.929688 191.480469 C 570.292969 192.667969 570.59375 193.871094 570.835938 195.089844 C 571.078125 196.304688 571.257812 197.53125 571.382812 198.769531 C 571.503906 200.003906 571.5625 201.242188 571.5625 202.484375 C 571.5625 203.726562 571.503906 204.964844 571.382812 206.199219 C 571.257812 207.433594 571.078125 208.660156 570.835938 209.878906 C 570.59375 211.097656 570.292969 212.300781 569.933594 213.488281 C 569.570312 214.675781 569.152344 215.84375 568.679688 216.992188 C 568.203125 218.136719 567.671875 219.257812 567.089844 220.351562 C 566.503906 221.449219 565.867188 222.511719 565.175781 223.542969 C 564.488281 224.574219 563.75 225.570312 562.960938 226.53125 C 562.171875 227.492188 561.339844 228.410156 560.464844 229.289062 C 559.585938 230.164062 558.667969 231 557.707031 231.785156 C 556.746094 232.574219 555.753906 233.3125 554.71875 234.003906 C 553.6875 234.691406 552.625 235.328125 551.53125 235.914062 C 550.433594 236.5 549.3125 237.03125 548.167969 237.503906 C 547.019531 237.980469 545.851562 238.398438 544.664062 238.757812 C 543.476562 239.117188 542.273438 239.421875 541.058594 239.664062 C 539.839844 239.90625 538.613281 240.085938 537.378906 240.207031 C 536.144531 240.332031 534.90625 240.390625 533.664062 240.390625 C 532.421875 240.390625 531.183594 240.332031 529.949219 240.207031 C 528.714844 240.085938 527.488281 239.90625 526.269531 239.664062 C 525.050781 239.421875 523.851562 239.121094 522.660156 238.757812 C 521.472656 238.398438 520.304688 237.980469 519.160156 237.503906 C 518.011719 237.03125 516.890625 236.5 515.796875 235.914062 C 514.703125 235.332031 513.640625 234.691406 512.605469 234.003906 C 511.574219 233.3125 510.578125 232.574219 509.621094 231.785156 C 508.660156 231 507.742188 230.167969 506.863281 229.289062 C 505.984375 228.410156 505.152344 227.492188 504.367188 226.53125 C 503.578125 225.574219 502.839844 224.578125 502.148438 223.542969 C 501.460938 222.511719 500.824219 221.449219 500.238281 220.355469 C 499.652344 219.257812 499.121094 218.136719 498.648438 216.992188 C 498.171875 215.84375 497.753906 214.675781 497.394531 213.488281 C 497.035156 212.300781 496.734375 211.097656 496.492188 209.878906 C 496.25 208.664062 496.066406 207.4375 495.945312 206.199219 C 495.824219 204.964844 495.761719 203.726562 495.761719 202.484375 C 495.761719 201.242188 495.824219 200.003906 495.945312 198.769531 C 496.066406 197.535156 496.25 196.308594 496.492188 195.089844 C 496.734375 193.871094 497.035156 192.667969 497.394531 191.480469 C 497.753906 190.292969 498.171875 189.125 498.648438 187.980469 C 499.121094 186.832031 499.652344 185.710938 500.238281 184.617188 C 500.824219 183.523438 501.460938 182.457031 502.148438 181.425781 C 502.839844 180.394531 503.578125 179.398438 504.363281 178.4375 C 505.152344 177.476562 505.984375 176.558594 506.863281 175.679688 C 507.742188 174.804688 508.660156 173.972656 509.617188 173.183594 C 510.578125 172.394531 511.574219 171.65625 512.605469 170.96875 C 513.636719 170.277344 514.703125 169.640625 515.796875 169.054688 C 516.890625 168.46875 518.011719 167.9375 519.160156 167.464844 C 520.304688 166.988281 521.472656 166.570312 522.660156 166.210938 C 523.847656 165.851562 525.050781 165.550781 526.269531 165.308594 C 527.484375 165.066406 528.710938 164.882812 529.949219 164.761719 C 531.183594 164.640625 532.421875 164.578125 533.664062 164.578125 C 534.902344 164.578125 536.140625 164.640625 537.378906 164.761719 C 538.613281 164.882812 539.839844 165.066406 541.054688 165.308594 C 542.273438 165.550781 543.476562 165.851562 544.664062 166.210938 C 545.851562 166.570312 547.019531 166.988281 548.167969 167.464844 C 549.3125 167.9375 550.433594 168.46875 551.527344 169.054688 C 552.625 169.640625 553.6875 170.277344 554.71875 170.964844 C 555.75 171.65625 556.746094 172.394531 557.707031 173.183594 C 558.664062 173.96875 559.585938 174.800781 560.460938 175.679688 Z M 560.460938 175.679688 " fill-opacity="1" fill-rule="nonzero"/><path fill="#000000" d="M 533.679688 241.035156 C 512.410156 241.035156 495.128906 223.75 495.128906 202.476562 C 495.128906 181.203125 512.410156 163.921875 533.679688 163.921875 C 554.949219 163.921875 572.230469 181.203125 572.230469 202.476562 C 572.230469 223.75 554.949219 241.035156 533.679688 241.035156 Z M 533.679688 165.25 C 513.148438 165.25 496.429688 181.972656 496.429688 202.507812 C 496.429688 223.039062 513.148438 239.761719 533.679688 239.761719 C 554.207031 239.761719 570.929688 223.039062 570.929688 202.507812 C 570.929688 181.945312 554.207031 165.25 533.679688 165.25 Z M 533.679688 165.25 " fill-opacity="1" fill-rule="nonzero"/><path fill="#ffffff" d="M 560.292969 202.476562 C 560.292969 202.476562 548.390625 215.742188 533.679688 215.742188 C 518.996094 215.742188 507.0625 202.476562 507.0625 202.476562 C 507.0625 202.476562 518.96875 189.210938 533.679688 189.210938 C 548.359375 189.210938 560.292969 202.476562 560.292969 202.476562 Z M 560.292969 202.476562 " fill-opacity="1" fill-rule="nonzero"/><path fill="#000000" d="M 533.679688 216.421875 C 518.878906 216.421875 507.09375 203.480469 506.589844 202.921875 C 506.351562 202.683594 506.351562 202.300781 506.589844 202.0625 C 507.09375 201.503906 518.878906 188.5625 533.679688 188.5625 C 548.476562 188.5625 560.265625 201.503906 560.765625 202.0625 C 561.003906 202.300781 561.003906 202.683594 560.765625 202.921875 C 560.265625 203.480469 548.476562 216.421875 533.679688 216.421875 Z M 507.976562 202.476562 C 510.195312 204.753906 520.945312 215.09375 533.679688 215.09375 C 546.410156 215.09375 557.191406 204.722656 559.378906 202.476562 C 557.164062 200.203125 546.410156 189.863281 533.679688 189.863281 C 520.945312 189.863281 510.164062 200.230469 507.976562 202.476562 Z M 507.976562 202.476562 " fill-opacity="1" fill-rule="nonzero"/><path fill="#5479f7" d="M 544.933594 202.476562 C 544.933594 203.214844 544.859375 203.945312 544.71875 204.667969 C 544.574219 205.390625 544.359375 206.09375 544.078125 206.773438 C 543.792969 207.453125 543.445312 208.101562 543.035156 208.714844 C 542.625 209.328125 542.160156 209.894531 541.636719 210.414062 C 541.113281 210.9375 540.546875 211.402344 539.929688 211.8125 C 539.316406 212.222656 538.667969 212.566406 537.984375 212.851562 C 537.300781 213.132812 536.597656 213.34375 535.875 213.488281 C 535.148438 213.632812 534.417969 213.703125 533.679688 213.703125 C 532.9375 213.703125 532.207031 213.632812 531.484375 213.488281 C 530.757812 213.34375 530.054688 213.132812 529.371094 212.851562 C 528.6875 212.566406 528.039062 212.222656 527.425781 211.8125 C 526.8125 211.402344 526.242188 210.9375 525.71875 210.414062 C 525.199219 209.894531 524.730469 209.328125 524.320312 208.714844 C 523.910156 208.101562 523.5625 207.453125 523.28125 206.773438 C 522.996094 206.09375 522.785156 205.390625 522.640625 204.667969 C 522.496094 203.945312 522.421875 203.214844 522.421875 202.476562 C 522.421875 201.738281 522.496094 201.011719 522.640625 200.285156 C 522.785156 199.5625 522.996094 198.863281 523.28125 198.179688 C 523.5625 197.5 523.910156 196.851562 524.320312 196.238281 C 524.730469 195.625 525.199219 195.058594 525.71875 194.539062 C 526.242188 194.015625 526.8125 193.550781 527.425781 193.140625 C 528.039062 192.734375 528.6875 192.386719 529.371094 192.105469 C 530.054688 191.824219 530.757812 191.609375 531.484375 191.464844 C 532.207031 191.320312 532.9375 191.25 533.679688 191.25 C 534.417969 191.25 535.148438 191.320312 535.875 191.464844 C 536.597656 191.609375 537.300781 191.824219 537.984375 192.105469 C 538.667969 192.386719 539.316406 192.734375 539.929688 193.140625 C 540.546875 193.550781 541.113281 194.015625 541.636719 194.539062 C 542.160156 195.058594 542.625 195.625 543.035156 196.238281 C 543.445312 196.851562 543.792969 197.5 544.078125 198.179688 C 544.359375 198.863281 544.574219 199.5625 544.71875 200.285156 C 544.859375 201.011719 544.933594 201.738281 544.933594 202.476562 Z M 544.933594 202.476562 " fill-opacity="1" fill-rule="nonzero"/><path fill="#ffffff" d="M 540.324219 200.941406 C 540.324219 201.328125 540.25 201.703125 540.101562 202.058594 C 539.953125 202.417969 539.742188 202.734375 539.46875 203.007812 C 539.195312 203.285156 538.878906 203.496094 538.519531 203.644531 C 538.160156 203.792969 537.789062 203.867188 537.402344 203.867188 C 537.011719 203.867188 536.640625 203.792969 536.28125 203.644531 C 535.921875 203.496094 535.605469 203.285156 535.332031 203.007812 C 535.058594 202.734375 534.847656 202.417969 534.699219 202.058594 C 534.550781 201.703125 534.476562 201.328125 534.476562 200.941406 C 534.476562 200.554688 534.550781 200.179688 534.699219 199.820312 C 534.847656 199.464844 535.058594 199.148438 535.332031 198.871094 C 535.605469 198.597656 535.921875 198.386719 536.28125 198.238281 C 536.640625 198.089844 537.011719 198.015625 537.402344 198.015625 C 537.789062 198.015625 538.160156 198.089844 538.519531 198.238281 C 538.878906 198.386719 539.195312 198.597656 539.46875 198.871094 C 539.742188 199.148438 539.953125 199.464844 540.101562 199.820312 C 540.25 200.179688 540.324219 200.554688 540.324219 200.941406 Z M 540.324219 200.941406 " fill-opacity="1" fill-rule="nonzero"/><g clip-path="url(#2a2936a0a4)"><path fill="#000000" d="M 410.730469 675.375 L 128.382812 675.375 C 128.027344 675.375 127.734375 675.078125 127.734375 674.722656 C 127.734375 674.371094 128.027344 674.074219 128.382812 674.074219 L 410.730469 674.074219 C 411.085938 674.074219 411.378906 674.371094 411.378906 674.722656 C 411.378906 675.078125 411.085938 675.375 410.730469 675.375 Z M 410.730469 675.375 " fill-opacity="1" fill-rule="nonzero"/></g><g clip-path="url(#962b3c002d)"><path fill="#000000" d="M 397.140625 315.839844 C 396.933594 315.839844 396.730469 315.753906 396.609375 315.574219 L 268.964844 135.882812 C 268.757812 135.585938 268.820312 135.171875 269.113281 134.96875 C 269.410156 134.761719 269.824219 134.820312 270.03125 135.113281 L 397.675781 314.808594 C 397.878906 315.101562 397.820312 315.515625 397.527344 315.722656 C 397.40625 315.8125 397.289062 315.839844 397.140625 315.839844 Z M 397.140625 315.839844 " fill-opacity="1" fill-rule="nonzero"/></g><path fill="#000000" d="M 397.140625 495.679688 C 396.933594 495.679688 396.730469 495.59375 396.609375 495.414062 L 268.964844 315.574219 C 268.757812 315.28125 268.820312 314.867188 269.113281 314.660156 C 269.410156 314.453125 269.824219 314.511719 270.03125 314.808594 L 397.675781 494.648438 C 397.878906 494.941406 397.820312 495.355469 397.527344 495.5625 C 397.40625 495.652344 397.289062 495.679688 397.140625 495.679688 Z M 397.140625 495.679688 " fill-opacity="1" fill-rule="nonzero"/><g clip-path="url(#bc060aae2b)"><path fill="#000000" d="M 397.140625 495.679688 C 396.789062 495.679688 396.492188 495.386719 396.492188 495.03125 L 396.492188 135.527344 C 396.492188 135.171875 396.789062 134.878906 397.140625 134.878906 C 397.496094 134.878906 397.792969 135.171875 397.792969 135.527344 L 397.792969 495.0625 C 397.792969 495.386719 397.496094 495.679688 397.140625 495.679688 Z M 397.140625 495.679688 " fill-opacity="1" fill-rule="nonzero"/></g><g clip-path="url(#33eca978c0)"><path fill="#000000" d="M 269.496094 495.679688 C 269.144531 495.679688 268.847656 495.386719 268.847656 495.03125 L 268.847656 135.527344 C 268.847656 135.171875 269.144531 134.878906 269.496094 134.878906 C 269.851562 134.878906 270.148438 135.171875 270.148438 135.527344 L 270.148438 495.0625 C 270.148438 495.386719 269.851562 495.679688 269.496094 495.679688 Z M 269.496094 495.679688 " fill-opacity="1" fill-rule="nonzero"/></g><path fill="#ffffff" d="M 397.140625 315.191406 L 269.496094 315.191406 L 0.738281 494.882812 L 128.382812 494.882812 Z M 397.140625 315.191406 " fill-opacity="1" fill-rule="nonzero"/><path fill="#000000" d="M 128.382812 495.535156 L 0.738281 495.535156 C 0.441406 495.535156 0.207031 495.355469 0.117188 495.0625 C 0.03125 494.796875 0.148438 494.5 0.382812 494.324219 L 269.171875 314.628906 C 269.292969 314.570312 269.410156 314.511719 269.527344 314.511719 L 397.171875 314.511719 C 397.46875 314.511719 397.703125 314.6875 397.792969 314.984375 C 397.878906 315.25 397.761719 315.546875 397.527344 315.722656 L 128.738281 495.414062 C 128.621094 495.503906 128.5 495.535156 128.382812 495.535156 Z M 2.867188 494.234375 L 128.175781 494.234375 L 395.015625 315.839844 L 269.703125 315.839844 Z M 2.867188 494.234375 " fill-opacity="1" fill-rule="nonzero"/><path fill="#e2eaff" d="M 273.398438 276.25 L 328.285156 239.527344 L 328.285156 354.308594 L 273.398438 391.003906 Z M 273.398438 276.25 " fill-opacity="1" fill-rule="nonzero"/><path fill="#ffffff" d="M 273.398438 391.652344 C 273.277344 391.652344 273.191406 391.625 273.101562 391.566406 C 272.894531 391.445312 272.746094 391.238281 272.746094 391.003906 L 272.746094 276.25 C 272.746094 276.042969 272.867188 275.835938 273.042969 275.71875 L 327.929688 238.996094 C 328.136719 238.847656 328.371094 238.847656 328.609375 238.964844 C 328.816406 239.082031 328.960938 239.289062 328.960938 239.527344 L 328.960938 354.277344 C 328.960938 354.484375 328.84375 354.691406 328.667969 354.8125 L 273.78125 391.535156 C 273.632812 391.625 273.515625 391.652344 273.398438 391.652344 Z M 274.046875 276.605469 L 274.046875 389.792969 L 327.632812 353.953125 L 327.632812 240.765625 Z M 274.046875 276.605469 " fill-opacity="1" fill-rule="nonzero"/><path fill="#e2eaff" d="M 142.917969 276.25 L 273.398438 276.25 L 273.398438 391.003906 L 142.917969 391.003906 Z M 142.917969 276.25 " fill-opacity="1" fill-rule="nonzero"/><path fill="#ffffff" d="M 273.398438 391.652344 L 142.917969 391.652344 C 142.5625 391.652344 142.265625 391.359375 142.265625 391.003906 L 142.265625 276.25 C 142.265625 275.894531 142.5625 275.601562 142.917969 275.601562 L 273.398438 275.601562 C 273.75 275.601562 274.046875 275.894531 274.046875 276.25 L 274.046875 391.003906 C 274.046875 391.386719 273.75 391.652344 273.398438 391.652344 Z M 143.566406 390.355469 L 272.746094 390.355469 L 272.746094 276.902344 L 143.566406 276.902344 Z M 143.566406 390.355469 " fill-opacity="1" fill-rule="nonzero"/><path fill="#e2eaff" d="M 142.917969 276.25 L 197.804688 239.527344 L 328.285156 239.527344 L 273.398438 276.25 Z M 142.917969 276.25 " fill-opacity="1" fill-rule="nonzero"/><path fill="#ffffff" d="M 273.398438 276.902344 L 142.917969 276.902344 C 142.621094 276.902344 142.386719 276.722656 142.296875 276.429688 C 142.207031 276.164062 142.324219 275.867188 142.5625 275.691406 L 197.449219 238.996094 C 197.566406 238.9375 197.683594 238.875 197.804688 238.875 L 328.285156 238.875 C 328.578125 238.875 328.816406 239.054688 328.902344 239.347656 C 328.992188 239.617188 328.875 239.910156 328.636719 240.089844 L 273.75 276.78125 C 273.632812 276.871094 273.515625 276.902344 273.398438 276.902344 Z M 145.042969 275.601562 L 273.191406 275.601562 L 326.15625 240.175781 L 198.011719 240.175781 Z M 145.042969 275.601562 " fill-opacity="1" fill-rule="nonzero"/><path fill="#e2eaff" d="M 198.542969 351.324219 L 240.753906 323.109375 L 240.753906 411.359375 L 198.542969 439.605469 Z M 198.542969 351.324219 " fill-opacity="1" fill-rule="nonzero"/><path fill="#ffffff" d="M 198.542969 440.253906 C 198.421875 440.253906 198.335938 440.226562 198.246094 440.167969 C 198.039062 440.046875 197.890625 439.839844 197.890625 439.605469 L 197.890625 351.355469 C 197.890625 351.148438 198.011719 350.941406 198.1875 350.824219 L 240.402344 322.578125 C 240.605469 322.429688 240.84375 322.429688 241.078125 322.546875 C 241.285156 322.667969 241.433594 322.871094 241.433594 323.109375 L 241.433594 411.359375 C 241.433594 411.566406 241.316406 411.773438 241.140625 411.890625 L 198.925781 440.136719 C 198.808594 440.226562 198.6875 440.253906 198.542969 440.253906 Z M 199.191406 351.679688 L 199.191406 438.363281 L 240.105469 411.003906 L 240.105469 324.320312 Z M 199.191406 351.679688 " fill-opacity="1" fill-rule="nonzero"/><path fill="#e2eaff" d="M 98.191406 351.324219 L 198.542969 351.324219 L 198.542969 439.574219 L 98.191406 439.574219 Z M 98.191406 351.324219 " fill-opacity="1" fill-rule="nonzero"/><path fill="#ffffff" d="M 198.542969 440.253906 L 98.191406 440.253906 C 97.839844 440.253906 97.542969 439.960938 97.542969 439.605469 L 97.542969 351.355469 C 97.542969 351 97.839844 350.703125 98.191406 350.703125 L 198.542969 350.703125 C 198.894531 350.703125 199.191406 351 199.191406 351.355469 L 199.191406 439.605469 C 199.191406 439.960938 198.894531 440.253906 198.542969 440.253906 Z M 98.84375 438.957031 L 197.890625 438.957031 L 197.890625 352.003906 L 98.84375 352.003906 Z M 98.84375 438.957031 " fill-opacity="1" fill-rule="nonzero"/><path fill="#e2eaff" d="M 98.191406 351.324219 L 140.40625 323.109375 L 240.753906 323.109375 L 198.542969 351.324219 Z M 98.191406 351.324219 " fill-opacity="1" fill-rule="nonzero"/><path fill="#ffffff" d="M 198.542969 351.976562 L 98.191406 351.976562 C 97.898438 351.976562 97.660156 351.796875 97.570312 351.503906 C 97.484375 351.234375 97.601562 350.941406 97.839844 350.761719 L 140.050781 322.519531 C 140.167969 322.460938 140.289062 322.398438 140.40625 322.398438 L 240.753906 322.398438 C 241.050781 322.398438 241.285156 322.578125 241.375 322.871094 C 241.464844 323.140625 241.347656 323.433594 241.109375 323.613281 L 198.894531 351.855469 C 198.808594 351.945312 198.6875 351.976562 198.542969 351.976562 Z M 100.347656 350.675781 L 198.363281 350.675781 L 238.628906 323.730469 L 140.613281 323.730469 Z M 100.347656 350.675781 " fill-opacity="1" fill-rule="nonzero"/><path fill="#ffffff" d="M 397.140625 495.03125 L 269.496094 495.03125 L 0.738281 674.722656 L 128.382812 674.722656 Z M 397.140625 495.03125 " fill-opacity="1" fill-rule="nonzero"/><g clip-path="url(#5e0f531e0b)"><path fill="#000000" d="M 128.382812 675.375 L 0.738281 675.375 C 0.441406 675.375 0.207031 675.195312 0.117188 674.902344 C 0.03125 674.636719 0.148438 674.339844 0.382812 674.164062 L 269.171875 494.46875 C 269.292969 494.410156 269.410156 494.351562 269.527344 494.351562 L 397.171875 494.351562 C 397.46875 494.351562 397.703125 494.527344 397.792969 494.824219 C 397.878906 495.121094 397.761719 495.386719 397.527344 495.5625 L 128.738281 675.253906 C 128.621094 675.34375 128.5 675.375 128.382812 675.375 Z M 2.867188 674.074219 L 128.175781 674.074219 L 395.015625 495.679688 L 269.703125 495.679688 Z M 2.867188 674.074219 " fill-opacity="1" fill-rule="nonzero"/></g><path fill="#e2eaff" d="M 286.71875 490.363281 L 318.976562 468.765625 L 318.976562 536.277344 L 286.71875 557.875 Z M 286.71875 490.363281 " fill-opacity="1" fill-rule="nonzero"/><path fill="#ffffff" d="M 286.71875 558.523438 C 286.601562 558.523438 286.511719 558.492188 286.425781 558.433594 C 286.21875 558.316406 286.070312 558.109375 286.070312 557.875 L 286.070312 490.363281 C 286.070312 490.15625 286.1875 489.949219 286.367188 489.832031 L 318.652344 468.234375 C 318.859375 468.085938 319.097656 468.085938 319.332031 468.203125 C 319.539062 468.324219 319.6875 468.53125 319.6875 468.765625 L 319.6875 536.277344 C 319.6875 536.484375 319.570312 536.691406 319.390625 536.808594 L 287.105469 558.40625 C 286.957031 558.492188 286.839844 558.523438 286.71875 558.523438 Z M 287.371094 490.71875 L 287.371094 556.664062 L 318.328125 535.921875 L 318.328125 469.976562 Z M 287.371094 490.71875 " fill-opacity="1" fill-rule="nonzero"/><path fill="#e2eaff" d="M 209.972656 490.363281 L 286.71875 490.363281 L 286.71875 557.875 L 209.972656 557.875 Z M 209.972656 490.363281 " fill-opacity="1" fill-rule="nonzero"/><path fill="#ffffff" d="M 286.71875 558.523438 L 209.972656 558.523438 C 209.621094 558.523438 209.324219 558.226562 209.324219 557.875 L 209.324219 490.363281 C 209.324219 490.007812 209.621094 489.714844 209.972656 489.714844 L 286.71875 489.714844 C 287.074219 489.714844 287.371094 490.007812 287.371094 490.363281 L 287.371094 557.875 C 287.371094 558.226562 287.074219 558.523438 286.71875 558.523438 Z M 210.625 557.222656 L 286.070312 557.222656 L 286.070312 491.011719 L 210.625 491.011719 Z M 210.625 557.222656 " fill-opacity="1" fill-rule="nonzero"/><path fill="#e2eaff" d="M 209.972656 490.363281 L 242.230469 468.765625 L 318.976562 468.765625 L 286.71875 490.363281 Z M 209.972656 490.363281 " fill-opacity="1" fill-rule="nonzero"/><path fill="#ffffff" d="M 286.71875 491.011719 L 209.972656 491.011719 C 209.679688 491.011719 209.441406 490.835938 209.351562 490.539062 C 209.265625 490.246094 209.382812 489.980469 209.621094 489.800781 L 241.90625 468.203125 C 242.023438 468.144531 242.144531 468.085938 242.261719 468.085938 L 319.007812 468.085938 C 319.304688 468.085938 319.539062 468.265625 319.628906 468.558594 C 319.714844 468.824219 319.597656 469.121094 319.363281 469.296875 L 287.074219 490.894531 C 286.957031 490.984375 286.839844 491.011719 286.71875 491.011719 Z M 212.101562 489.714844 L 286.511719 489.714844 L 316.851562 469.414062 L 242.4375 469.414062 Z M 212.101562 489.714844 " fill-opacity="1" fill-rule="nonzero"/><path fill="#e2eaff" d="M 216.679688 512.730469 L 259.304688 484.21875 L 259.304688 573.296875 L 216.679688 601.808594 Z M 216.679688 512.730469 " fill-opacity="1" fill-rule="nonzero"/><path fill="#ffffff" d="M 216.679688 602.457031 C 216.5625 602.457031 216.472656 602.425781 216.382812 602.367188 C 216.175781 602.25 216.03125 602.042969 216.03125 601.808594 L 216.03125 512.730469 C 216.03125 512.523438 216.148438 512.316406 216.324219 512.195312 L 258.953125 483.6875 C 259.160156 483.566406 259.394531 483.539062 259.632812 483.65625 C 259.839844 483.773438 259.984375 483.980469 259.984375 484.21875 L 259.984375 573.296875 C 259.984375 573.503906 259.867188 573.710938 259.691406 573.828125 L 217.0625 602.339844 C 216.945312 602.425781 216.828125 602.457031 216.679688 602.457031 Z M 217.328125 513.054688 L 217.328125 600.566406 L 258.65625 572.941406 L 258.65625 485.429688 Z M 217.328125 513.054688 " fill-opacity="1" fill-rule="nonzero"/><path fill="#e2eaff" d="M 115.386719 512.730469 L 216.679688 512.730469 L 216.679688 601.808594 L 115.386719 601.808594 Z M 115.386719 512.730469 " fill-opacity="1" fill-rule="nonzero"/><path fill="#ffffff" d="M 216.679688 602.457031 L 115.386719 602.457031 C 115.03125 602.457031 114.734375 602.160156 114.734375 601.808594 L 114.734375 512.730469 C 114.734375 512.375 115.03125 512.078125 115.386719 512.078125 L 216.679688 512.078125 C 217.035156 512.078125 217.328125 512.375 217.328125 512.730469 L 217.328125 601.808594 C 217.328125 602.160156 217.0625 602.457031 216.679688 602.457031 Z M 116.035156 601.15625 L 216.03125 601.15625 L 216.03125 513.378906 L 116.035156 513.378906 Z M 116.035156 601.15625 " fill-opacity="1" fill-rule="nonzero"/><path fill="#e2eaff" d="M 115.386719 512.730469 L 158.011719 484.21875 L 259.304688 484.21875 L 216.679688 512.730469 Z M 115.386719 512.730469 " fill-opacity="1" fill-rule="nonzero"/><path fill="#ffffff" d="M 216.679688 513.378906 L 115.386719 513.378906 C 115.089844 513.378906 114.851562 513.203125 114.765625 512.90625 C 114.675781 512.640625 114.792969 512.34375 115.03125 512.167969 L 157.65625 483.65625 C 157.777344 483.597656 157.894531 483.539062 158.011719 483.539062 L 259.304688 483.539062 C 259.601562 483.539062 259.839844 483.714844 259.925781 484.011719 C 260.015625 484.277344 259.898438 484.574219 259.660156 484.75 L 217.035156 513.261719 C 216.945312 513.320312 216.828125 513.378906 216.679688 513.378906 Z M 117.542969 512.078125 L 216.503906 512.078125 L 257.179688 484.867188 L 158.21875 484.867188 Z M 117.542969 512.078125 " fill-opacity="1" fill-rule="nonzero"/><path fill="#ffffff" d="M 397.140625 135.527344 L 269.496094 135.527344 L 0.738281 315.191406 L 128.382812 315.191406 Z M 397.140625 135.527344 " fill-opacity="1" fill-rule="nonzero"/><g clip-path="url(#d009611ab5)"><path fill="#000000" d="M 128.382812 315.839844 L 0.738281 315.839844 C 0.441406 315.839844 0.207031 315.664062 0.117188 315.367188 C 0.03125 315.101562 0.148438 314.808594 0.382812 314.628906 L 269.171875 134.9375 C 269.292969 134.878906 269.410156 134.820312 269.527344 134.820312 L 397.171875 134.820312 C 397.46875 134.820312 397.703125 134.996094 397.792969 135.292969 C 397.878906 135.558594 397.761719 135.851562 397.527344 136.03125 L 128.738281 315.722656 C 128.621094 315.8125 128.5 315.839844 128.382812 315.839844 Z M 2.867188 314.542969 L 128.175781 314.542969 L 395.015625 136.179688 L 269.703125 136.179688 Z M 2.867188 314.542969 " fill-opacity="1" fill-rule="nonzero"/></g><g clip-path="url(#fb616a5fcd)"><path fill="#000000" d="M 0.738281 675.375 C 0.382812 675.375 0.0898438 675.078125 0.0898438 674.722656 L 0.0898438 315.191406 C 0.0898438 314.894531 0.265625 314.660156 0.53125 314.570312 C 0.796875 314.480469 1.09375 314.570312 1.269531 314.808594 L 128.914062 494.5 C 129.121094 494.796875 129.0625 495.207031 128.765625 495.414062 C 128.472656 495.621094 128.058594 495.5625 127.851562 495.269531 L 1.359375 317.230469 L 1.359375 674.722656 C 1.359375 675.078125 1.09375 675.375 0.738281 675.375 Z M 0.738281 675.375 " fill-opacity="1" fill-rule="nonzero"/><path fill="#000000" d="M 128.382812 675.375 C 128.175781 675.375 127.96875 675.285156 127.851562 675.109375 L 0.207031 495.269531 C 0 494.972656 0.0585938 494.558594 0.355469 494.351562 C 0.648438 494.144531 1.0625 494.203125 1.269531 494.5 L 127.734375 672.683594 L 127.734375 315.191406 C 127.734375 314.835938 128.027344 314.542969 128.382812 314.542969 C 128.738281 314.542969 129.03125 314.835938 129.03125 315.191406 L 129.03125 674.722656 C 129.03125 675.019531 128.855469 675.253906 128.589844 675.34375 C 128.5 675.375 128.441406 675.375 128.382812 675.375 Z M 128.382812 675.375 " fill-opacity="1" fill-rule="nonzero"/></g><path fill="#e2eaff" d="M 285.953125 169.003906 L 300.691406 159.164062 L 300.691406 189.980469 L 285.953125 199.847656 Z M 285.953125 169.003906 " fill-opacity="1" fill-rule="nonzero"/><path fill="#ffffff" d="M 285.953125 200.496094 C 285.832031 200.496094 285.746094 200.46875 285.65625 200.410156 C 285.449219 200.289062 285.300781 200.085938 285.300781 199.847656 L 285.300781 169.003906 C 285.300781 168.796875 285.421875 168.589844 285.597656 168.472656 L 300.339844 158.601562 C 300.542969 158.457031 300.78125 158.457031 301.015625 158.574219 C 301.222656 158.691406 301.371094 158.898438 301.371094 159.136719 L 301.371094 189.949219 C 301.371094 190.15625 301.253906 190.363281 301.078125 190.480469 L 286.335938 200.351562 C 286.21875 200.4375 286.070312 200.496094 285.953125 200.496094 Z M 286.601562 169.355469 L 286.601562 198.605469 L 300.042969 189.625 L 300.042969 160.375 Z M 286.601562 169.355469 " fill-opacity="1" fill-rule="nonzero"/><path fill="#e2eaff" d="M 250.917969 169.003906 L 285.953125 169.003906 L 285.953125 199.816406 L 250.917969 199.816406 Z M 250.917969 169.003906 " fill-opacity="1" fill-rule="nonzero"/><path fill="#ffffff" d="M 285.953125 200.496094 L 250.917969 200.496094 C 250.5625 200.496094 250.265625 200.203125 250.265625 199.847656 L 250.265625 169.003906 C 250.265625 168.648438 250.5625 168.351562 250.917969 168.351562 L 285.953125 168.351562 C 286.304688 168.351562 286.601562 168.648438 286.601562 169.003906 L 286.601562 199.816406 C 286.601562 200.203125 286.304688 200.496094 285.953125 200.496094 Z M 251.566406 199.199219 L 285.300781 199.199219 L 285.300781 169.683594 L 251.566406 169.683594 Z M 251.566406 199.199219 " fill-opacity="1" fill-rule="nonzero"/><path fill="#e2eaff" d="M 250.917969 169.003906 L 265.65625 159.164062 L 300.691406 159.164062 L 285.953125 169.003906 Z M 250.917969 169.003906 " fill-opacity="1" fill-rule="nonzero"/><path fill="#ffffff" d="M 285.953125 169.652344 L 250.917969 169.652344 C 250.621094 169.652344 250.386719 169.476562 250.296875 169.179688 C 250.207031 168.914062 250.324219 168.617188 250.5625 168.441406 L 265.304688 158.574219 C 265.421875 158.515625 265.539062 158.457031 265.65625 158.457031 L 300.691406 158.457031 C 300.988281 158.457031 301.222656 158.632812 301.3125 158.929688 C 301.402344 159.195312 301.285156 159.488281 301.046875 159.667969 L 286.304688 169.535156 C 286.21875 169.625 286.070312 169.652344 285.953125 169.652344 Z M 253.042969 168.351562 L 285.746094 168.351562 L 298.535156 159.785156 L 265.835938 159.785156 Z M 253.042969 168.351562 " fill-opacity="1" fill-rule="nonzero"/><path fill="#e2eaff" d="M 238.332031 166.078125 L 270.621094 144.480469 L 270.621094 211.992188 L 238.332031 233.589844 Z M 238.332031 166.078125 " fill-opacity="1" fill-rule="nonzero"/><path fill="#ffffff" d="M 238.332031 234.238281 C 238.214844 234.238281 238.125 234.207031 238.039062 234.148438 C 237.832031 234.03125 237.683594 233.824219 237.683594 233.589844 L 237.683594 166.078125 C 237.683594 165.871094 237.800781 165.664062 237.976562 165.546875 L 270.265625 143.949219 C 270.472656 143.800781 270.710938 143.800781 270.945312 143.917969 C 271.152344 144.039062 271.300781 144.242188 271.300781 144.480469 L 271.300781 211.992188 C 271.300781 212.199219 271.179688 212.40625 271.003906 212.523438 L 238.714844 234.121094 C 238.597656 234.207031 238.449219 234.238281 238.332031 234.238281 Z M 238.984375 166.433594 L 238.984375 232.375 L 269.96875 211.664062 L 269.96875 145.722656 Z M 238.984375 166.433594 " fill-opacity="1" fill-rule="nonzero"/><path fill="#e2eaff" d="M 161.585938 166.078125 L 238.332031 166.078125 L 238.332031 233.589844 L 161.585938 233.589844 Z M 161.585938 166.078125 " fill-opacity="1" fill-rule="nonzero"/><path fill="#ffffff" d="M 238.332031 234.238281 L 161.585938 234.238281 C 161.230469 234.238281 160.9375 233.941406 160.9375 233.589844 L 160.9375 166.078125 C 160.9375 165.722656 161.230469 165.429688 161.585938 165.429688 L 238.332031 165.429688 C 238.6875 165.429688 238.984375 165.722656 238.984375 166.078125 L 238.984375 233.589844 C 238.984375 233.941406 238.6875 234.238281 238.332031 234.238281 Z M 162.234375 232.9375 L 237.683594 232.9375 L 237.683594 166.726562 L 162.234375 166.726562 Z M 162.234375 232.9375 " fill-opacity="1" fill-rule="nonzero"/><path fill="#e2eaff" d="M 161.585938 166.078125 L 193.875 144.480469 L 270.621094 144.480469 L 238.332031 166.078125 Z M 161.585938 166.078125 " fill-opacity="1" fill-rule="nonzero"/><path fill="#ffffff" d="M 238.332031 166.726562 L 161.585938 166.726562 C 161.292969 166.726562 161.054688 166.550781 160.964844 166.253906 C 160.878906 165.988281 160.996094 165.695312 161.230469 165.515625 L 193.519531 143.917969 C 193.636719 143.859375 193.757812 143.800781 193.875 143.800781 L 270.621094 143.800781 C 270.914062 143.800781 271.152344 143.976562 271.242188 144.273438 C 271.328125 144.539062 271.210938 144.835938 270.976562 145.011719 L 238.6875 166.609375 C 238.597656 166.699219 238.449219 166.726562 238.332031 166.726562 Z M 163.714844 165.429688 L 238.125 165.429688 L 268.464844 145.128906 L 194.082031 145.128906 Z M 163.714844 165.429688 " fill-opacity="1" fill-rule="nonzero"/><path fill="#e2eaff" d="M 188.527344 210.660156 L 212.988281 194.324219 L 212.988281 245.464844 L 188.527344 261.804688 Z M 188.527344 210.660156 " fill-opacity="1" fill-rule="nonzero"/><path fill="#ffffff" d="M 188.527344 262.453125 C 188.410156 262.453125 188.320312 262.425781 188.230469 262.363281 C 188.023438 262.246094 187.878906 262.039062 187.878906 261.804688 L 187.878906 210.660156 C 187.878906 210.453125 187.996094 210.246094 188.171875 210.128906 L 212.632812 193.761719 C 212.839844 193.613281 213.074219 193.613281 213.3125 193.730469 C 213.519531 193.851562 213.667969 194.058594 213.667969 194.292969 L 213.667969 245.4375 C 213.667969 245.640625 213.546875 245.847656 213.371094 245.96875 L 188.910156 262.335938 C 188.792969 262.425781 188.675781 262.453125 188.527344 262.453125 Z M 189.175781 211.015625 L 189.175781 260.59375 L 212.335938 245.109375 L 212.335938 195.535156 Z M 189.175781 211.015625 " fill-opacity="1" fill-rule="nonzero"/><path fill="#e2eaff" d="M 130.390625 210.660156 L 188.527344 210.660156 L 188.527344 261.804688 L 130.390625 261.804688 Z M 130.390625 210.660156 " fill-opacity="1" fill-rule="nonzero"/><path fill="#ffffff" d="M 188.527344 262.453125 L 130.390625 262.453125 C 130.039062 262.453125 129.742188 262.15625 129.742188 261.804688 L 129.742188 210.660156 C 129.742188 210.304688 130.039062 210.011719 130.390625 210.011719 L 188.527344 210.011719 C 188.882812 210.011719 189.175781 210.304688 189.175781 210.660156 L 189.175781 261.804688 C 189.175781 262.15625 188.882812 262.453125 188.527344 262.453125 Z M 131.042969 261.152344 L 187.878906 261.152344 L 187.878906 211.3125 L 131.042969 211.3125 Z M 131.042969 261.152344 " fill-opacity="1" fill-rule="nonzero"/><path fill="#e2eaff" d="M 130.390625 210.660156 L 154.851562 194.324219 L 212.988281 194.324219 L 188.527344 210.660156 Z M 130.390625 210.660156 " fill-opacity="1" fill-rule="nonzero"/><path fill="#ffffff" d="M 188.527344 211.3125 L 130.390625 211.3125 C 130.097656 211.3125 129.859375 211.132812 129.769531 210.839844 C 129.683594 210.574219 129.800781 210.277344 130.039062 210.101562 L 154.496094 193.730469 C 154.613281 193.671875 154.734375 193.613281 154.851562 193.613281 L 212.988281 193.613281 C 213.28125 193.613281 213.519531 193.789062 213.605469 194.085938 C 213.695312 194.351562 213.578125 194.648438 213.339844 194.824219 L 188.910156 211.222656 C 188.792969 211.28125 188.675781 211.3125 188.527344 211.3125 Z M 132.519531 210.011719 L 188.351562 210.011719 L 210.859375 194.941406 L 155.058594 194.941406 Z M 132.519531 210.011719 " fill-opacity="1" fill-rule="nonzero"/><path fill="#ffffff" d="M 399.210938 368.785156 C 368.605469 343.378906 332.066406 315.160156 323.585938 317.585938 C 308.433594 321.925781 280.074219 346.214844 283.589844 352.652344 C 287.105469 359.09375 297.472656 351.324219 307.695312 345.976562 C 317.914062 340.660156 321.8125 343.789062 321.8125 343.789062 C 321.8125 343.789062 334.78125 352.59375 315.523438 362.257812 C 296.261719 371.917969 304.679688 382.257812 315.523438 379.777344 C 326.363281 377.292969 338.238281 379.777344 338.238281 379.777344 L 365.769531 408.554688 C 384.882812 395.347656 394.453125 380.132812 399.210938 368.785156 Z M 399.210938 368.785156 " fill-opacity="1" fill-rule="nonzero"/><path fill="#000000" d="M 365.769531 409.234375 C 365.59375 409.234375 365.414062 409.171875 365.296875 409.027344 L 337.914062 380.398438 C 336.347656 380.101562 325.507812 378.179688 315.667969 380.425781 C 310.203125 381.667969 305.035156 379.804688 303.707031 376.054688 C 302.082031 371.503906 306.394531 366.125 315.226562 361.695312 C 321.753906 358.414062 325.179688 354.957031 325.417969 351.382812 C 325.683594 347.277344 321.488281 344.382812 321.460938 344.351562 C 321.402344 344.292969 317.621094 341.574219 307.988281 346.597656 C 306.070312 347.601562 304.148438 348.664062 302.289062 349.730469 C 295.964844 353.304688 289.96875 356.671875 286.070312 355.550781 C 284.769531 355.164062 283.734375 354.308594 282.996094 353.007812 C 282.4375 351.976562 282.496094 350.554688 283.234375 348.84375 C 287.28125 339.121094 310.558594 320.6875 323.378906 317.023438 C 330.441406 314.984375 356.109375 332.269531 399.59375 368.34375 C 399.859375 368.578125 399.917969 368.992188 399.683594 369.257812 C 399.445312 369.523438 399.03125 369.582031 398.765625 369.347656 C 356.847656 334.574219 330.203125 316.433594 323.734375 318.265625 C 310.53125 322.046875 287.988281 340.808594 284.414062 349.34375 C 283.855469 350.675781 283.765625 351.707031 284.121094 352.386719 C 284.683594 353.394531 285.421875 354.042969 286.394531 354.308594 C 289.792969 355.285156 295.523438 352.035156 301.636719 348.605469 C 303.5 347.542969 305.449219 346.449219 307.367188 345.445312 C 317.855469 339.980469 322.019531 343.171875 322.199219 343.316406 C 322.347656 343.4375 327.011719 346.628906 326.6875 351.472656 C 326.421875 355.519531 322.757812 359.359375 315.789062 362.875 C 307.574219 367.011719 303.5 371.769531 304.886719 375.640625 C 306.011719 378.773438 310.5 380.308594 315.34375 379.1875 C 326.214844 376.703125 338.207031 379.15625 338.328125 379.1875 C 338.445312 379.214844 338.5625 379.273438 338.652344 379.363281 L 366.183594 408.140625 C 366.421875 408.40625 366.421875 408.820312 366.152344 409.054688 C 366.09375 409.171875 365.949219 409.234375 365.769531 409.234375 Z M 365.769531 409.234375 " fill-opacity="1" fill-rule="nonzero"/><path fill="#5479f7" d="M 606.378906 417.359375 C 597.367188 402.378906 580.53125 393.929688 563.128906 395.613281 L 453.652344 406.277344 C 447.507812 406.871094 441.394531 404.917969 436.757812 400.84375 C 428.691406 393.75 414.71875 381.636719 399.238281 368.785156 C 394.484375 380.132812 384.914062 395.347656 365.800781 408.582031 L 410.820312 455.675781 C 417.730469 462.917969 427.183594 467.140625 437.167969 467.523438 L 491.789062 469.535156 L 566.910156 565.230469 L 704.71875 565.230469 Z M 606.378906 417.359375 " fill-opacity="1" fill-rule="nonzero"/><path fill="#000000" d="M 491.730469 470.15625 C 491.554688 470.15625 491.375 470.09375 491.257812 469.949219 L 482.21875 459.902344 C 479.265625 456.621094 475.011719 454.730469 470.578125 454.730469 L 469.457031 454.730469 C 469.101562 454.730469 468.808594 454.4375 468.808594 454.082031 C 468.808594 453.726562 469.101562 453.433594 469.457031 453.433594 L 470.578125 453.433594 C 475.394531 453.433594 479.972656 455.472656 483.195312 459.046875 L 492.234375 469.089844 C 492.46875 469.355469 492.441406 469.769531 492.175781 470.007812 C 492.054688 470.09375 491.90625 470.15625 491.730469 470.15625 Z M 491.730469 470.15625 " fill-opacity="1" fill-rule="nonzero"/><path fill="#000000" d="M 599.996094 573.53125 L 513.207031 486.730469 C 509.867188 483.390625 504.433594 483.390625 501.066406 486.730469 L 440.683594 547.148438 C 437.347656 550.488281 437.347656 555.921875 440.683594 559.292969 L 527.476562 646.09375 C 530.8125 649.433594 536.25 649.433594 539.617188 646.09375 L 600.027344 585.675781 C 603.363281 582.308594 603.363281 576.871094 599.996094 573.53125 Z M 599.996094 573.53125 " fill-opacity="1" fill-rule="nonzero"/><path fill="#ffffff" d="M 543.011719 537.84375 L 518.199219 560.53125 L 480.710938 570.753906 C 477.492188 571.640625 476.28125 575.601562 478.496094 578.113281 C 479.679688 579.441406 481.511719 580.5625 484.316406 580.859375 C 492.675781 581.746094 496.25 584.878906 493.652344 588.1875 C 491.050781 591.496094 478.023438 606.0625 490.285156 611.851562 C 490.285156 611.851562 490.195312 619.769531 497.726562 620.242188 C 497.726562 620.242188 498.671875 626.359375 505.261719 628.425781 C 505.261719 628.425781 507.859375 636.019531 514.859375 633.65625 C 518.847656 632.328125 548.890625 609.429688 581.976562 581.6875 C 575.566406 561.507812 554.148438 545.289062 543.011719 537.84375 Z M 543.011719 537.84375 " fill-opacity="1" fill-rule="nonzero"/><path fill="#000000" d="M 512.292969 634.777344 C 507.566406 634.777344 505.320312 630.199219 504.789062 628.957031 C 499.175781 627.066406 497.578125 622.398438 497.195312 620.863281 C 490.636719 620.15625 489.75 613.949219 489.664062 612.265625 C 486.914062 610.878906 485.230469 608.925781 484.671875 606.476562 C 483.195312 600.035156 489.722656 591.996094 492.527344 588.570312 C 492.765625 588.273438 492.972656 588.007812 493.148438 587.800781 C 493.828125 586.945312 494.003906 586.117188 493.679688 585.378906 C 492.882812 583.519531 489.367188 582.101562 484.257812 581.539062 C 481.597656 581.242188 479.5 580.269531 478.023438 578.585938 C 476.84375 577.253906 476.429688 575.421875 476.960938 573.679688 C 477.492188 571.9375 478.820312 570.636719 480.566406 570.136719 L 517.875 559.972656 L 542.570312 537.371094 C 542.835938 537.132812 543.25 537.132812 543.484375 537.398438 C 543.722656 537.664062 543.722656 538.078125 543.457031 538.316406 L 518.640625 561.003906 C 518.554688 561.066406 518.464844 561.125 518.375 561.152344 L 480.890625 571.375 C 479.589844 571.730469 478.554688 572.734375 478.171875 574.035156 C 477.789062 575.335938 478.082031 576.695312 478.96875 577.699219 C 480.238281 579.117188 482.070312 579.972656 484.375 580.238281 C 490.046875 580.828125 493.886719 582.515625 494.863281 584.847656 C 495.214844 585.675781 495.363281 587.003906 494.152344 588.601562 C 493.976562 588.808594 493.769531 589.074219 493.503906 589.398438 C 491.050781 592.410156 484.582031 600.359375 485.910156 606.179688 C 486.414062 608.335938 487.949219 610.050781 490.550781 611.261719 C 490.785156 611.378906 490.933594 611.617188 490.933594 611.851562 C 490.933594 612.148438 490.964844 619.179688 497.785156 619.59375 C 498.082031 619.621094 498.347656 619.828125 498.378906 620.15625 C 498.40625 620.390625 499.351562 625.914062 505.46875 627.835938 C 505.675781 627.894531 505.820312 628.042969 505.878906 628.25 C 505.96875 628.546875 508.363281 635.191406 514.65625 633.09375 C 518.523438 631.796875 548.597656 608.867188 581.5625 581.242188 C 581.828125 581.007812 582.242188 581.035156 582.480469 581.332031 C 582.714844 581.597656 582.6875 582.011719 582.390625 582.25 C 548.804688 610.40625 519.144531 632.976562 515.066406 634.335938 C 514.0625 634.632812 513.148438 634.777344 512.292969 634.777344 Z M 512.292969 634.777344 " fill-opacity="1" fill-rule="nonzero"/><path fill="#5479f7" d="M 646.375 500.410156 C 640.878906 485.785156 632.667969 465.308594 625.84375 454.082031 L 543.339844 451.273438 C 543.339844 451.273438 575.269531 495.621094 579.730469 504.277344 L 543.042969 537.871094 C 554.179688 545.316406 575.597656 561.539062 582.035156 581.746094 C 601.796875 565.171875 622.652344 546.882812 639.699219 530.425781 C 647.675781 522.625 650.304688 510.867188 646.375 500.410156 Z M 646.375 500.410156 " fill-opacity="1" fill-rule="nonzero"/><path fill="#000000" d="M 581.976562 582.367188 C 581.800781 582.367188 581.59375 582.277344 581.476562 582.128906 C 581.238281 581.863281 581.269531 581.449219 581.5625 581.214844 C 597.191406 568.125 619.847656 548.597656 639.195312 529.925781 C 647.023438 522.359375 649.625 510.867188 645.785156 500.644531 C 640.171875 485.695312 632.046875 465.546875 625.3125 454.40625 C 625.136719 454.113281 625.222656 453.699219 625.519531 453.519531 C 625.816406 453.34375 626.230469 453.433594 626.40625 453.726562 C 633.199219 464.925781 641.351562 485.164062 646.996094 500.171875 C 651.011719 510.867188 648.324219 522.921875 640.113281 530.839844 C 620.765625 549.542969 598.078125 569.101562 582.421875 582.1875 C 582.273438 582.308594 582.125 582.367188 581.976562 582.367188 Z M 581.976562 582.367188 " fill-opacity="1" fill-rule="nonzero"/><path fill="#000000" d="M 543.011719 538.492188 C 542.835938 538.492188 542.660156 538.433594 542.539062 538.285156 C 542.304688 538.019531 542.304688 537.605469 542.570312 537.371094 L 578.90625 504.132812 C 573.765625 494.675781 543.101562 452.101562 542.804688 451.660156 C 542.601562 451.363281 542.660156 450.949219 542.953125 450.742188 C 543.25 450.535156 543.664062 450.597656 543.871094 450.890625 C 545.167969 452.695312 575.890625 495.386719 580.292969 503.984375 C 580.441406 504.25 580.382812 504.574219 580.144531 504.75 L 543.457031 538.34375 C 543.308594 538.433594 543.160156 538.492188 543.011719 538.492188 Z M 543.011719 538.492188 " fill-opacity="1" fill-rule="nonzero"/><path fill="#000000" d="M 580.648438 504.011719 C 580.441406 504.011719 580.265625 503.925781 580.144531 503.746094 C 579.9375 503.453125 579.96875 503.066406 580.265625 502.832031 L 588.859375 496.183594 C 589.15625 495.976562 589.539062 496.007812 589.777344 496.300781 C 589.984375 496.597656 589.953125 496.980469 589.65625 497.21875 L 581.0625 503.867188 C 580.941406 503.953125 580.796875 504.011719 580.648438 504.011719 Z M 580.648438 504.011719 " fill-opacity="1" fill-rule="nonzero"/><path fill="#ffffff" d="M 511.347656 395.109375 C 511.347656 395.109375 502.246094 416.234375 511.347656 433.726562 L 529.632812 406.25 Z M 511.347656 395.109375 " fill-opacity="1" fill-rule="nonzero"/><path fill="#ffffff" d="M 503.546875 390.621094 L 523.78125 422.914062 L 546.765625 396.054688 L 523.78125 369.347656 Z M 503.546875 390.621094 " fill-opacity="1" fill-rule="nonzero"/><path fill="#000000" d="M 523.78125 423.5625 C 523.753906 423.5625 523.753906 423.5625 523.722656 423.5625 C 523.515625 423.53125 523.339844 423.445312 523.222656 423.265625 L 502.984375 390.972656 C 502.839844 390.707031 502.867188 390.382812 503.074219 390.175781 L 523.308594 368.902344 C 523.429688 368.785156 523.605469 368.695312 523.78125 368.695312 C 523.960938 368.695312 524.136719 368.785156 524.253906 368.933594 L 547.265625 395.613281 C 547.472656 395.847656 547.472656 396.203125 547.265625 396.46875 L 524.253906 423.355469 C 524.136719 423.503906 523.960938 423.5625 523.78125 423.5625 Z M 504.34375 390.707031 L 523.839844 421.847656 L 545.90625 396.054688 L 523.753906 370.320312 Z M 504.34375 390.707031 " fill-opacity="1" fill-rule="nonzero"/><path fill="#ffffff" d="M 524.992188 439.605469 L 518.023438 422.171875 C 518.023438 422.171875 529.839844 394.753906 544.933594 385.804688 L 557.605469 400.429688 C 557.605469 400.429688 537.578125 423.53125 524.992188 439.605469 Z M 524.992188 439.605469 " fill-opacity="1" fill-rule="nonzero"/><path fill="#000000" d="M 518.023438 422.824219 C 517.933594 422.824219 517.84375 422.792969 517.757812 422.765625 C 517.429688 422.617188 517.285156 422.234375 517.402344 421.90625 C 517.875 420.785156 529.484375 394.195312 544.578125 385.242188 C 544.84375 385.09375 545.199219 385.125 545.40625 385.390625 L 553.914062 395.199219 C 554.148438 395.464844 554.121094 395.878906 553.855469 396.113281 C 553.589844 396.351562 553.175781 396.320312 552.9375 396.054688 L 544.785156 386.660156 C 530.25 395.671875 518.730469 422.171875 518.613281 422.4375 C 518.496094 422.675781 518.257812 422.824219 518.023438 422.824219 Z M 518.023438 422.824219 " fill-opacity="1" fill-rule="nonzero"/><path fill="#000000" d="M 481.15625 334.070312 C 478.40625 327.304688 480.296875 318.882812 485.703125 313.949219 C 491.109375 309.015625 499.648438 307.863281 506.148438 311.203125 C 516.871094 316.699219 519.941406 331.410156 530.28125 337.585938 C 533.441406 339.476562 537.253906 340.539062 539.585938 343.378906 C 541.890625 346.214844 542.15625 350.320312 541.121094 353.835938 C 540.089844 357.351562 537.933594 360.425781 535.777344 363.378906 C 528.832031 372.863281 521.332031 381.964844 512.851562 390.117188 C 508.539062 394.253906 503.457031 398.359375 497.492188 398.507812 C 491.96875 398.65625 486.914062 395.347656 482.867188 391.566406 C 480.0625 388.933594 477.433594 385.832031 476.695312 382.050781 C 475.867188 377.738281 477.699219 373.394531 479.472656 369.40625 C 481.332031 365.242188 483.195312 361.015625 485.824219 357.292969 C 487.386719 355.078125 489.21875 353.007812 491.375 351.324219 C 494.300781 349.050781 496.042969 349.167969 492.441406 346.566406 C 487.859375 343.289062 483.339844 339.417969 481.15625 334.070312 Z M 481.15625 334.070312 " fill-opacity="1" fill-rule="nonzero"/><path fill="#000000" d="M 497.105469 399.1875 C 492.410156 399.1875 487.449219 396.792969 482.394531 392.066406 C 480.0625 389.882812 476.84375 386.484375 476.042969 382.199219 C 475.21875 377.855469 476.84375 373.71875 478.851562 369.167969 C 480.59375 365.242188 482.574219 360.777344 485.292969 356.9375 C 487.003906 354.484375 488.925781 352.417969 490.992188 350.824219 C 491.613281 350.351562 492.175781 349.964844 492.617188 349.671875 C 493.121094 349.34375 493.769531 348.902344 493.828125 348.726562 C 493.828125 348.636719 493.679688 348.28125 492.085938 347.128906 C 487.683594 343.96875 482.839844 339.949219 480.566406 334.308594 C 477.730469 327.335938 479.707031 318.558594 485.261719 313.476562 C 490.816406 308.394531 499.734375 307.183594 506.441406 310.640625 C 512.113281 313.566406 515.71875 319.003906 519.203125 324.261719 C 522.421875 329.105469 525.730469 334.128906 530.636719 337.023438 C 531.582031 337.585938 532.644531 338.089844 533.648438 338.589844 C 535.984375 339.714844 538.40625 340.894531 540.089844 342.992188 C 542.332031 345.769531 542.953125 349.90625 541.742188 354.042969 C 540.707031 357.589844 538.582031 360.691406 536.277344 363.792969 C 528.421875 374.515625 520.917969 383.292969 513.296875 390.621094 C 508.984375 394.757812 503.722656 399.039062 497.519531 399.21875 C 497.375 399.1875 497.226562 399.1875 497.105469 399.1875 Z M 481.746094 333.835938 C 483.902344 339.152344 488.570312 343.023438 492.824219 346.066406 C 494.332031 347.128906 495.128906 347.898438 495.097656 348.753906 C 495.070312 349.582031 494.332031 350.082031 493.324219 350.761719 C 492.851562 351.058594 492.351562 351.414062 491.761719 351.855469 C 489.8125 353.363281 487.980469 355.34375 486.324219 357.675781 C 483.695312 361.429688 481.835938 365.625 480.03125 369.671875 C 478.082031 374.042969 476.546875 377.972656 477.316406 381.933594 C 478.054688 385.804688 480.890625 388.847656 483.28125 391.09375 C 488.214844 395.703125 492.972656 397.976562 497.460938 397.859375 C 503.222656 397.710938 508.242188 393.605469 512.378906 389.644531 C 519.941406 382.375 527.414062 373.660156 535.214844 362.996094 C 537.429688 359.980469 539.46875 356.996094 540.472656 353.660156 C 541.566406 349.9375 541.035156 346.242188 539.054688 343.789062 C 537.546875 341.929688 535.363281 340.867188 533.058594 339.742188 C 532.023438 339.242188 530.960938 338.710938 529.957031 338.117188 C 524.816406 335.046875 521.390625 329.90625 518.109375 324.941406 C 514.566406 319.59375 511.199219 314.511719 505.851562 311.765625 C 499.617188 308.542969 491.316406 309.667969 486.148438 314.394531 C 480.949219 319.179688 479.117188 327.335938 481.746094 333.835938 Z M 481.746094 333.835938 " fill-opacity="1" fill-rule="nonzero"/><path fill="#ffffff" d="M 500.238281 335.132812 C 500.238281 335.132812 488.007812 353.601562 485.171875 360.574219 C 485.171875 360.574219 502.570312 374.042969 510.667969 374.042969 C 513.148438 374.042969 524.402344 367.75 525.171875 360.1875 C 525.9375 352.625 522.777344 349.464844 519.144531 345.328125 C 514.300781 339.773438 500.207031 338.976562 500.238281 335.132812 Z M 500.238281 335.132812 " fill-opacity="1" fill-rule="nonzero"/><path fill="#000000" d="M 510.667969 374.695312 C 502.453125 374.695312 485.496094 361.664062 484.789062 361.105469 C 484.550781 360.925781 484.464844 360.601562 484.582031 360.335938 C 487.417969 353.363281 499.203125 335.519531 499.707031 334.78125 C 499.855469 334.542969 500.148438 334.425781 500.445312 334.515625 C 500.710938 334.601562 500.917969 334.839844 500.917969 335.132812 C 500.917969 336.550781 504.523438 337.761719 508.007812 338.914062 C 512.261719 340.335938 517.105469 341.960938 519.675781 344.882812 L 520.207031 345.476562 C 523.632812 349.375 526.617188 352.773438 525.851562 360.21875 C 524.992188 368.222656 513.324219 374.695312 510.667969 374.695312 Z M 485.96875 360.394531 C 488.597656 362.375 503.546875 373.425781 510.667969 373.425781 C 513.03125 373.425781 523.8125 367.308594 524.519531 360.160156 C 525.230469 353.246094 522.570312 350.230469 519.175781 346.390625 L 518.640625 345.800781 C 516.308594 343.140625 511.640625 341.574219 507.535156 340.214844 C 504.078125 339.0625 501.152344 338.089844 500.0625 336.613281 C 497.519531 340.480469 488.628906 354.25 485.96875 360.394531 Z M 485.96875 360.394531 " fill-opacity="1" fill-rule="nonzero"/><path fill="#ffffff" d="M 521.890625 377.292969 C 521.890625 377.292969 530.132812 361.191406 537.402344 364.355469 C 547.738281 368.84375 535.039062 387.429688 521.890625 377.292969 Z M 521.890625 377.292969 " fill-opacity="1" fill-rule="nonzero"/><path fill="#000000" d="M 529.925781 380.929688 C 527.089844 380.929688 524.195312 379.894531 521.507812 377.828125 C 521.269531 377.648438 521.183594 377.292969 521.332031 377.027344 C 521.683594 376.347656 529.957031 360.425781 537.667969 363.761719 C 540.265625 364.886719 541.773438 366.984375 541.859375 369.671875 C 541.980469 373.425781 539.203125 377.621094 535.242188 379.660156 C 533.53125 380.484375 531.730469 380.929688 529.925781 380.929688 Z M 522.75 377.117188 C 527.976562 380.898438 532.4375 379.597656 534.652344 378.476562 C 538.167969 376.675781 540.679688 372.980469 540.5625 369.703125 C 540.503906 368.195312 539.882812 366.15625 537.164062 364.945312 C 531.195312 362.34375 524.167969 374.515625 522.75 377.117188 Z M 522.75 377.117188 " fill-opacity="1" fill-rule="nonzero"/><path fill="#000000" d="M 526.796875 374.695312 C 526.589844 374.695312 526.351562 374.578125 526.234375 374.398438 C 526.058594 374.105469 526.144531 373.691406 526.441406 373.511719 C 528.894531 372.007812 531.789062 371.296875 534.652344 371.5625 C 535.007812 371.59375 535.273438 371.917969 535.242188 372.273438 C 535.214844 372.625 534.890625 372.894531 534.535156 372.863281 C 531.964844 372.625 529.335938 373.246094 527.121094 374.605469 C 527.03125 374.664062 526.914062 374.695312 526.796875 374.695312 Z M 526.796875 374.695312 " fill-opacity="1" fill-rule="nonzero"/><path fill="#000000" d="M 809.113281 565.761719 L 601.472656 565.761719 C 601.121094 565.761719 600.824219 565.464844 600.824219 565.113281 C 600.824219 564.757812 601.121094 564.460938 601.472656 564.460938 L 808.464844 564.460938 L 808.464844 346.714844 C 808.464844 346.359375 808.757812 346.066406 809.113281 346.066406 C 809.46875 346.066406 809.761719 346.359375 809.761719 346.714844 L 809.761719 565.113281 C 809.765625 565.464844 809.46875 565.761719 809.113281 565.761719 Z M 809.113281 565.761719 " fill-opacity="1" fill-rule="nonzero"/><g clip-path="url(#448d797bc9)"><path fill="#000000" d="M 809.351562 211.253906 C 808.996094 211.253906 808.699219 210.957031 808.699219 210.601562 L 808.699219 136 L 664.453125 136 C 664.097656 136 663.804688 135.707031 663.804688 135.351562 C 663.804688 134.996094 664.097656 134.699219 664.453125 134.699219 L 809.351562 134.699219 C 809.703125 134.699219 810 134.996094 810 135.351562 L 810 210.601562 C 809.96875 210.957031 809.703125 211.253906 809.351562 211.253906 Z M 809.351562 211.253906 " fill-opacity="1" fill-rule="nonzero"/></g></svg>