<svg xmlns="http://www.w3.org/2000/svg" xmlns:xlink="http://www.w3.org/1999/xlink" width="1080" zoomAndPan="magnify" viewBox="0 0 810 809.999993" height="1080" preserveAspectRatio="xMidYMid meet" version="1.0"><path fill="#addcde" d="M 199.789062 223.117188 C 278.886719 143.511719 256.242188 93.625 310.359375 56.765625 C 393.636719 0.0546875 549.0625 48.847656 640.75 126.851562 C 753.054688 222.390625 810.996094 396.835938 744.992188 554.648438 C 674.703125 722.714844 489.753906 809.960938 324.71875 783.667969 C 177.34375 760.191406 32.472656 644.039062 17.957031 504.734375 C 16.382812 489.632812 9.4375 408.011719 58.148438 337.644531 C 98.414062 279.476562 137.09375 286.21875 199.789062 223.117188 " fill-opacity="1" fill-rule="nonzero"/><path fill="#44c8cc" d="M 135.816406 137.558594 C 188.28125 127.902344 236.726562 152.214844 244.023438 191.863281 C 247.289062 209.605469 241.757812 227.40625 229.953125 242.535156 L 253.558594 278.835938 L 203.984375 265.363281 C 191.949219 272.75 177.792969 278.277344 162.242188 281.136719 C 109.78125 290.796875 61.339844 266.480469 54.039062 226.828125 C 46.742188 187.183594 83.355469 147.214844 135.816406 137.558594 " fill-opacity="1" fill-rule="nonzero"/><path fill="#000000" d="M 98.015625 144.71875 C 97.574219 144.71875 97.140625 144.511719 96.878906 144.113281 C 96.457031 143.484375 96.621094 142.636719 97.25 142.214844 C 98.414062 141.429688 99.609375 140.664062 100.796875 139.925781 C 101.4375 139.53125 102.285156 139.730469 102.683594 140.375 C 103.082031 141.015625 102.882812 141.859375 102.238281 142.257812 C 101.078125 142.972656 99.914062 143.722656 98.777344 144.488281 C 98.542969 144.644531 98.277344 144.71875 98.015625 144.71875 " fill-opacity="1" fill-rule="nonzero"/><path fill="#000000" d="M 147.113281 272.214844 C 103.476562 272.214844 66.71875 249.078125 60.390625 214.683594 C 56.15625 191.675781 66.074219 167.929688 87.605469 149.527344 C 88.179688 149.039062 89.046875 149.105469 89.535156 149.683594 C 90.027344 150.253906 89.960938 151.117188 89.382812 151.609375 C 68.617188 169.355469 59.03125 192.164062 63.085938 214.1875 C 70.234375 253.027344 118.054688 276.90625 169.691406 267.390625 C 173.5625 266.679688 177.417969 265.789062 181.152344 264.734375 C 181.882812 264.527344 182.636719 264.953125 182.84375 265.683594 C 183.046875 266.40625 182.625 267.167969 181.894531 267.371094 C 178.078125 268.445312 174.140625 269.359375 170.1875 270.089844 C 162.375 271.527344 154.636719 272.214844 147.113281 272.214844 " fill-opacity="1" fill-rule="nonzero"/><path fill="#000000" d="M 261.257812 267.804688 C 261.136719 267.804688 261.015625 267.792969 260.898438 267.757812 L 211.890625 254.441406 C 208.332031 256.597656 204.582031 258.601562 200.734375 260.390625 C 200.046875 260.714844 199.234375 260.417969 198.917969 259.734375 C 198.59375 259.050781 198.890625 258.230469 199.578125 257.914062 C 203.511719 256.078125 207.34375 254.019531 210.960938 251.792969 C 211.285156 251.601562 211.671875 251.539062 212.039062 251.640625 L 258.148438 264.171875 L 236.5 230.882812 C 236.179688 230.390625 236.207031 229.75 236.570312 229.289062 C 248.53125 213.960938 253.433594 196.355469 250.371094 179.714844 C 246.921875 160.96875 233.984375 145.105469 213.941406 135.050781 C 193.769531 124.921875 168.84375 121.886719 143.761719 126.511719 C 137.847656 127.59375 132.003906 129.101562 126.402344 130.988281 C 125.683594 131.226562 124.90625 130.84375 124.664062 130.125 C 124.425781 129.40625 124.8125 128.632812 125.527344 128.390625 C 131.253906 126.464844 137.222656 124.921875 143.265625 123.8125 C 168.929688 119.089844 194.46875 122.210938 215.167969 132.597656 C 236 143.054688 249.457031 159.613281 253.066406 179.21875 C 256.222656 196.355469 251.34375 214.429688 239.328125 230.203125 L 262.40625 265.6875 C 262.714844 266.164062 262.699219 266.785156 262.363281 267.246094 C 262.101562 267.601562 261.6875 267.804688 261.257812 267.804688 " fill-opacity="1" fill-rule="nonzero"/><path fill="#048c90" d="M 159.113281 190.5 C 158.355469 190.5 157.746094 189.886719 157.742188 189.132812 C 157.738281 188.378906 158.351562 187.765625 159.109375 187.761719 L 225.101562 187.605469 C 225.105469 187.605469 225.105469 187.605469 225.105469 187.605469 C 225.863281 187.605469 226.476562 188.21875 226.476562 188.972656 C 226.476562 189.730469 225.867188 190.339844 225.109375 190.347656 L 159.113281 190.5 " fill-opacity="1" fill-rule="nonzero"/><path fill="#048c90" d="M 83.453125 188.597656 C 82.699219 188.597656 82.089844 187.988281 82.082031 187.238281 C 82.078125 186.480469 82.691406 185.863281 83.445312 185.859375 L 146.5 185.507812 C 146.503906 185.507812 146.507812 185.507812 146.511719 185.507812 C 147.261719 185.507812 147.875 186.117188 147.878906 186.871094 C 147.882812 187.625 147.273438 188.246094 146.519531 188.25 L 83.460938 188.597656 C 83.457031 188.597656 83.457031 188.597656 83.453125 188.597656 " fill-opacity="1" fill-rule="nonzero"/><path fill="#048c90" d="M 222.25 207.664062 C 222.246094 207.664062 222.242188 207.664062 222.234375 207.664062 L 136.011719 206.597656 C 135.253906 206.589844 134.648438 205.96875 134.660156 205.214844 C 134.667969 204.464844 135.28125 203.859375 136.03125 203.859375 C 136.035156 203.859375 136.039062 203.859375 136.046875 203.859375 L 222.269531 204.921875 C 223.027344 204.933594 223.632812 205.554688 223.621094 206.308594 C 223.613281 207.058594 223 207.664062 222.25 207.664062 " fill-opacity="1" fill-rule="nonzero"/><path fill="#048c90" d="M 119.3125 206.394531 C 119.308594 206.394531 119.300781 206.394531 119.292969 206.394531 L 80.582031 205.917969 C 79.828125 205.90625 79.222656 205.289062 79.230469 204.527344 C 79.238281 203.78125 79.851562 203.175781 80.597656 203.175781 C 80.605469 203.175781 80.609375 203.175781 80.617188 203.175781 L 119.328125 203.65625 C 120.085938 203.667969 120.691406 204.289062 120.679688 205.046875 C 120.671875 205.792969 120.0625 206.394531 119.3125 206.394531 " fill-opacity="1" fill-rule="nonzero"/><path fill="#048c90" d="M 224.710938 222.308594 C 224.710938 222.308594 224.707031 222.308594 224.703125 222.308594 L 193.113281 222.113281 C 192.355469 222.105469 191.746094 221.492188 191.75 220.734375 C 191.753906 219.980469 192.367188 219.371094 193.121094 219.371094 C 193.121094 219.371094 193.125 219.371094 193.128906 219.371094 L 224.71875 219.566406 C 225.476562 219.570312 226.085938 220.1875 226.082031 220.945312 C 226.078125 221.699219 225.464844 222.308594 224.710938 222.308594 " fill-opacity="1" fill-rule="nonzero"/><path fill="#048c90" d="M 185.589844 222.230469 C 185.582031 222.230469 185.574219 222.230469 185.566406 222.230469 L 83.035156 220.558594 C 82.28125 220.542969 81.679688 219.921875 81.6875 219.164062 C 81.703125 218.40625 82.316406 217.792969 83.082031 217.820312 L 185.609375 219.492188 C 186.367188 219.503906 186.96875 220.125 186.957031 220.882812 C 186.945312 221.632812 186.335938 222.230469 185.589844 222.230469 " fill-opacity="1" fill-rule="nonzero"/><path fill="#048c90" d="M 657.773438 748.636719 L 318.054688 748.636719 C 303.414062 748.636719 293.042969 736.828125 294.886719 722.265625 L 378.539062 62.699219 C 380.386719 48.132812 393.753906 36.328125 408.390625 36.328125 L 731.054688 32.5625 C 768.089844 32.5625 773.117188 48.132812 771.269531 62.699219 L 687.621094 722.265625 C 685.777344 736.828125 672.40625 748.636719 657.773438 748.636719 " fill-opacity="1" fill-rule="nonzero"/><path fill="#ffffff" d="M 637.324219 748.636719 L 297.609375 748.636719 C 282.972656 748.636719 272.601562 736.769531 274.449219 722.128906 L 358.097656 59.199219 C 359.945312 44.558594 373.308594 32.691406 387.949219 32.691406 L 727.664062 32.691406 C 742.304688 32.691406 752.679688 44.558594 750.828125 59.199219 L 667.183594 722.128906 C 665.332031 736.769531 651.964844 748.636719 637.324219 748.636719 " fill-opacity="1" fill-rule="nonzero"/><path fill="#addcde" d="M 293.808594 723.042969 L 373.675781 90.054688 C 374.105469 86.675781 377.1875 83.9375 380.566406 83.9375 L 722.113281 83.9375 C 725.492188 83.9375 727.886719 86.675781 727.460938 90.054688 L 647.589844 723.042969 C 647.167969 726.421875 644.078125 729.160156 640.699219 729.160156 L 299.152344 729.160156 C 295.773438 729.160156 293.378906 726.421875 293.808594 723.042969 " fill-opacity="1" fill-rule="nonzero"/><path fill="#addcde" d="M 553.554688 66.40625 C 548.070312 66.40625 544.1875 61.957031 544.878906 56.472656 C 545.570312 50.992188 550.574219 46.546875 556.058594 46.546875 C 561.542969 46.546875 565.429688 50.992188 564.738281 56.472656 C 564.046875 61.957031 559.042969 66.40625 553.554688 66.40625 " fill-opacity="1" fill-rule="nonzero"/><path fill="#000000" d="M 637.328125 750.003906 L 356.925781 750.003906 C 356.167969 750.003906 355.558594 749.390625 355.558594 748.636719 C 355.558594 747.878906 356.167969 747.265625 356.925781 747.265625 L 637.328125 747.265625 C 651.273438 747.265625 664.0625 735.914062 665.816406 721.960938 L 749.464844 59.03125 C 750.3125 52.308594 748.492188 46.003906 744.335938 41.289062 C 740.230469 36.628906 734.308594 34.0625 727.667969 34.0625 L 387.949219 34.0625 C 374 34.0625 361.214844 45.417969 359.457031 59.371094 L 304.414062 495.585938 C 304.320312 496.335938 303.640625 496.867188 302.882812 496.773438 C 302.132812 496.675781 301.601562 495.992188 301.695312 495.242188 L 356.734375 59.03125 C 358.664062 43.753906 372.667969 31.324219 387.949219 31.324219 L 727.667969 31.324219 C 735.101562 31.324219 741.753906 34.222656 746.390625 39.476562 C 751.074219 44.792969 753.136719 51.855469 752.1875 59.371094 L 668.539062 722.300781 C 666.609375 737.578125 652.605469 750.003906 637.328125 750.003906 " fill-opacity="1" fill-rule="nonzero"/><path fill="#000000" d="M 640.699219 730.53125 L 529.519531 730.53125 C 528.761719 730.53125 528.144531 729.914062 528.144531 729.160156 C 528.144531 728.40625 528.761719 727.789062 529.519531 727.789062 L 640.699219 727.789062 C 643.410156 727.789062 645.890625 725.585938 646.234375 722.871094 L 726.105469 89.882812 C 726.265625 88.632812 725.929688 87.472656 725.175781 86.617188 C 724.425781 85.769531 723.347656 85.304688 722.113281 85.304688 L 380.570312 85.304688 C 377.863281 85.304688 375.378906 87.507812 375.039062 90.226562 L 319.757812 528.316406 C 319.664062 529.066406 318.976562 529.597656 318.230469 529.507812 C 317.480469 529.410156 316.945312 528.726562 317.042969 527.976562 L 372.320312 89.882812 C 372.832031 85.84375 376.53125 82.5625 380.570312 82.5625 L 722.113281 82.5625 C 724.140625 82.5625 725.957031 83.359375 727.226562 84.804688 C 728.519531 86.261719 729.082031 88.183594 728.824219 90.226562 L 648.949219 723.210938 C 648.445312 727.25 644.742188 730.53125 640.699219 730.53125 " fill-opacity="1" fill-rule="nonzero"/><path fill="#000000" d="M 338.097656 464.199219 C 338.097656 464.144531 338.097656 464.085938 338.097656 464.03125 C 338.445312 446.085938 349.554688 427.796875 371.109375 409.671875 C 386.222656 396.96875 401.09375 388.96875 401.71875 388.632812 C 406.707031 385.972656 412.910156 387.851562 415.578125 392.839844 C 418.242188 397.828125 416.359375 404.03125 411.371094 406.695312 C 396.84375 414.492188 359.042969 440.046875 358.574219 464.421875 C 358.574219 464.460938 358.574219 464.5 358.574219 464.535156 C 358.445312 472.265625 360.734375 478.285156 365.566406 482.929688 C 377.140625 494.042969 400.605469 495.226562 408.671875 494.738281 C 414.316406 494.40625 419.164062 498.707031 419.503906 504.351562 C 419.839844 509.988281 415.535156 514.847656 409.890625 515.183594 C 408.347656 515.277344 371.71875 517.226562 351.382812 497.699219 C 342.34375 489.015625 337.875 477.746094 338.097656 464.199219 " fill-opacity="1" fill-rule="nonzero"/><path fill="#048c90" d="M 410.683594 537.304688 L 411.683594 476.664062 C 411.773438 471.007812 416.429688 466.5 422.089844 466.59375 C 427.742188 466.6875 432.25 471.34375 432.160156 477 L 431.164062 537.640625 C 431.074219 543.292969 426.410156 547.800781 420.757812 547.707031 C 415.105469 547.617188 410.59375 542.957031 410.683594 537.304688 " fill-opacity="1" fill-rule="nonzero"/><path fill="#048c90" d="M 327.996094 281.175781 L 349.390625 281.175781 C 350.238281 281.175781 350.929688 280.488281 350.929688 279.640625 L 350.929688 215.683594 C 350.929688 214.832031 350.242188 214.148438 349.390625 214.148438 L 327.996094 214.148438 C 323.5 214.148438 319.859375 217.785156 319.859375 222.28125 L 319.859375 273.039062 C 319.859375 277.535156 323.5 281.175781 327.996094 281.175781 " fill-opacity="1" fill-rule="nonzero"/><path fill="#ffffff" d="M 645.972656 281.175781 L 624.328125 281.175781 L 624.328125 220.621094 L 645.972656 220.621094 C 651.179688 220.621094 655.394531 224.839844 655.394531 230.046875 L 655.394531 271.746094 C 655.394531 276.953125 651.179688 281.175781 645.972656 281.175781 " fill-opacity="1" fill-rule="nonzero"/><path fill="#000000" d="M 625.703125 279.804688 L 628.703125 279.804688 C 642.667969 279.804688 654.027344 268.441406 654.027344 254.476562 L 654.027344 247.316406 C 654.027344 233.351562 642.667969 221.992188 628.703125 221.992188 L 625.703125 221.992188 Z M 628.703125 282.542969 L 624.332031 282.542969 C 623.574219 282.542969 622.964844 281.929688 622.964844 281.167969 L 622.964844 220.621094 C 622.964844 219.863281 623.574219 219.25 624.332031 219.25 L 628.703125 219.25 C 644.175781 219.25 656.769531 231.84375 656.769531 247.316406 L 656.769531 254.476562 C 656.769531 269.953125 644.175781 282.542969 628.703125 282.542969 " fill-opacity="1" fill-rule="nonzero"/><path fill="#ffffff" d="M 634.117188 248.394531 C 634.117188 183.328125 568.53125 116.023438 487.628906 116.023438 C 406.730469 116.023438 341.140625 183.328125 341.140625 248.394531 C 341.140625 313.464844 406.730469 351.648438 487.628906 351.648438 C 568.53125 351.648438 634.117188 313.464844 634.117188 248.394531 " fill-opacity="1" fill-rule="nonzero"/><path fill="#000000" d="M 487.628906 117.394531 C 404.570312 117.394531 342.511719 186.554688 342.511719 248.394531 C 342.511719 278.933594 357.136719 304.828125 384.804688 323.289062 C 410.910156 340.695312 447.425781 350.277344 487.628906 350.277344 C 527.832031 350.277344 564.347656 340.695312 590.449219 323.289062 C 618.117188 304.828125 632.746094 278.933594 632.746094 248.394531 C 632.746094 186.554688 570.683594 117.394531 487.628906 117.394531 Z M 487.628906 353.019531 C 446.890625 353.019531 409.828125 343.269531 383.289062 325.566406 C 354.816406 306.578125 339.769531 279.894531 339.769531 248.394531 C 339.769531 216.125 355.566406 182.746094 383.105469 156.8125 C 411.984375 129.628906 449.101562 114.65625 487.628906 114.65625 C 526.15625 114.65625 563.28125 129.628906 592.148438 156.8125 C 619.6875 182.746094 635.484375 216.125 635.484375 248.394531 C 635.484375 279.894531 620.441406 306.578125 591.96875 325.566406 C 565.425781 343.269531 528.367188 353.019531 487.628906 353.019531 " fill-opacity="1" fill-rule="nonzero"/><path fill="#ffffff" d="M 450.9375 371.199219 L 524.324219 371.199219 C 556.488281 371.199219 582.5625 397.269531 582.5625 429.433594 C 582.5625 450.683594 580.488281 471.882812 576.375 492.730469 L 565.824219 546.167969 C 558.449219 583.511719 525.695312 610.429688 487.628906 610.429688 C 449.5625 610.429688 416.8125 583.511719 409.441406 546.167969 L 398.886719 492.730469 C 394.773438 471.882812 392.699219 450.683594 392.699219 429.433594 C 392.699219 397.269531 418.773438 371.199219 450.9375 371.199219 " fill-opacity="1" fill-rule="nonzero"/><path fill="#000000" d="M 450.9375 372.566406 C 419.582031 372.566406 394.070312 398.078125 394.070312 429.433594 C 394.070312 450.550781 396.144531 471.757812 400.234375 492.46875 L 410.785156 545.902344 C 418.011719 582.496094 450.324219 609.058594 487.628906 609.058594 C 524.929688 609.058594 557.253906 582.496094 564.476562 545.902344 L 575.03125 492.46875 C 579.121094 471.757812 581.191406 450.550781 581.191406 429.433594 C 581.191406 398.078125 555.683594 372.566406 524.324219 372.566406 Z M 487.628906 611.800781 C 449.023438 611.800781 415.574219 584.308594 408.097656 546.429688 L 397.542969 493 C 393.425781 472.113281 391.332031 450.726562 391.332031 429.433594 C 391.332031 396.570312 418.066406 369.828125 450.9375 369.828125 L 524.324219 369.828125 C 557.191406 369.828125 583.929688 396.570312 583.929688 429.433594 C 583.929688 450.726562 581.84375 472.113281 577.71875 493 L 567.167969 546.429688 C 559.6875 584.308594 526.238281 611.800781 487.628906 611.800781 " fill-opacity="1" fill-rule="nonzero"/><path fill="#addcde" d="M 482.910156 500.234375 L 492.351562 500.234375 C 511.804688 500.234375 527.574219 484.464844 527.574219 465.011719 L 527.574219 371.199219 L 447.683594 371.199219 L 447.683594 465.011719 C 447.683594 484.464844 463.457031 500.234375 482.910156 500.234375 " fill-opacity="1" fill-rule="nonzero"/><path fill="#000000" d="M 527.574219 372.566406 L 447.683594 372.566406 C 446.929688 372.566406 446.316406 371.953125 446.316406 371.199219 C 446.316406 370.441406 446.929688 369.828125 447.683594 369.828125 L 527.574219 369.828125 C 528.332031 369.828125 528.949219 370.441406 528.949219 371.199219 C 528.949219 371.953125 528.332031 372.566406 527.574219 372.566406 " fill-opacity="1" fill-rule="nonzero"/><path fill="#000000" d="M 389.144531 228.871094 L 530.203125 228.871094 C 544.859375 228.871094 556.742188 241.671875 556.742188 257.460938 L 556.742188 276.117188 C 556.742188 288.160156 550.3125 300.921875 539.226562 303.003906 C 500.132812 310.351562 419.214844 310.351562 380.121094 303.003906 C 369.035156 300.921875 362.605469 288.160156 362.605469 276.117188 L 362.605469 257.460938 C 362.605469 241.671875 374.492188 228.871094 389.144531 228.871094 " fill-opacity="1" fill-rule="nonzero"/><path fill="#048c90" d="M 492.824219 266.40625 C 492.824219 271.699219 496.804688 275.988281 501.714844 275.988281 C 506.621094 275.988281 510.605469 271.699219 510.605469 266.40625 C 510.605469 261.117188 506.621094 256.828125 501.714844 256.828125 C 496.804688 256.828125 492.824219 261.117188 492.824219 266.40625 " fill-opacity="1" fill-rule="nonzero"/><path fill="#048c90" d="M 398.246094 266.40625 C 398.246094 271.699219 402.222656 275.988281 407.132812 275.988281 C 412.042969 275.988281 416.023438 271.699219 416.023438 266.40625 C 416.023438 261.117188 412.042969 256.828125 407.132812 256.828125 C 402.222656 256.828125 398.246094 261.117188 398.246094 266.40625 " fill-opacity="1" fill-rule="nonzero"/><path fill="#048c90" d="M 545.835938 322.726562 C 545.257812 322.726562 544.722656 322.363281 544.535156 321.785156 C 544.300781 321.066406 544.6875 320.292969 545.40625 320.058594 L 590.449219 305.226562 C 610.984375 298.464844 623.507812 278.054688 620.238281 256.683594 L 616.996094 235.503906 C 616.878906 234.753906 617.390625 234.054688 618.140625 233.941406 C 618.898438 233.824219 619.585938 234.339844 619.703125 235.089844 L 622.945312 256.265625 C 626.421875 278.960938 613.113281 300.648438 591.304688 307.828125 L 546.261719 322.65625 C 546.125 322.707031 545.976562 322.726562 545.835938 322.726562 " fill-opacity="1" fill-rule="nonzero"/><path fill="#048c90" d="M 639.550781 226.386719 C 638.941406 226.386719 638.386719 225.984375 638.230469 225.371094 C 638.152344 225.089844 630.597656 197.144531 610.753906 170.023438 C 592.511719 145.097656 559.832031 115.769531 507.644531 117.636719 C 506.90625 117.65625 506.253906 117.070312 506.234375 116.3125 C 506.203125 115.558594 506.792969 114.925781 507.550781 114.894531 C 531.109375 114.0625 552.828125 119.328125 572.035156 130.546875 C 587.382812 139.515625 601.167969 152.273438 613.015625 168.476562 C 633.144531 196.003906 640.796875 224.382812 640.875 224.667969 C 641.066406 225.398438 640.628906 226.148438 639.898438 226.34375 C 639.78125 226.375 639.664062 226.386719 639.550781 226.386719 " fill-opacity="1" fill-rule="nonzero"/><path fill="#44c8cc" d="M 601.136719 258.015625 C 598.71875 238.941406 610.945312 221.691406 628.425781 219.476562 C 630.34375 219.234375 637.449219 219.050781 639.320312 219.179688 C 654.488281 220.199219 662.3125 233.023438 664.460938 250.003906 C 666.777344 268.316406 659.800781 285.421875 643.425781 288.679688 C 642.746094 288.816406 637.902344 289.203125 637.195312 289.203125 C 618.03125 289.265625 603.546875 277.085938 601.136719 258.015625 " fill-opacity="1" fill-rule="nonzero"/><path fill="#048c90" d="M 608.695312 257.394531 C 606.65625 238.277344 619.214844 221.269531 636.738281 219.398438 C 654.265625 217.53125 670.125 231.511719 672.167969 250.628906 C 674.203125 269.742188 661.648438 286.75 644.125 288.621094 C 626.597656 290.488281 610.738281 276.511719 608.695312 257.394531 " fill-opacity="1" fill-rule="nonzero"/><path fill="#048c90" d="M 555.992188 328.03125 L 520.910156 331.367188 C 519.570312 331.492188 518.367188 330.496094 518.242188 329.15625 L 517.214844 318.367188 C 517.085938 317.023438 518.082031 315.820312 519.425781 315.695312 L 554.503906 312.359375 C 555.84375 312.238281 557.046875 313.226562 557.171875 314.566406 L 558.195312 325.359375 C 558.324219 326.703125 557.332031 327.902344 555.992188 328.03125 " fill-opacity="1" fill-rule="nonzero"/><path fill="#44c8cc" d="M 412.160156 578.003906 L 548.746094 578.003906 L 495.691406 434.542969 L 359.109375 434.539062 L 412.160156 578.003906 " fill-opacity="1" fill-rule="nonzero"/><path fill="#000000" d="M 413.113281 576.636719 L 546.777344 576.636719 L 494.738281 435.910156 L 361.074219 435.910156 Z M 548.746094 579.378906 L 412.160156 579.378906 C 411.589844 579.378906 411.074219 579.015625 410.875 578.480469 L 357.820312 435.011719 C 357.667969 434.597656 357.726562 434.125 357.980469 433.757812 C 358.238281 433.386719 358.660156 433.171875 359.109375 433.171875 L 495.691406 433.171875 C 496.265625 433.171875 496.777344 433.527344 496.976562 434.066406 L 550.03125 577.53125 C 550.1875 577.949219 550.128906 578.421875 549.867188 578.789062 C 549.613281 579.15625 549.191406 579.378906 548.746094 579.378906 " fill-opacity="1" fill-rule="nonzero"/><path fill="#000000" d="M 581.332031 542.382812 C 601.390625 542.382812 628.539062 539.527344 645.9375 526.1875 C 655.964844 518.496094 661.820312 508.347656 663.347656 496.011719 C 670.195312 440.65625 603.382812 408.96875 600.539062 407.644531 C 595.40625 405.261719 589.320312 407.488281 586.9375 412.625 C 584.5625 417.746094 586.78125 423.828125 591.902344 426.210938 C 592.464844 426.480469 648.039062 452.960938 643.023438 493.503906 C 642.1875 500.273438 639.0625 505.648438 633.472656 509.933594 C 614.34375 524.601562 563.886719 524.234375 549.429688 522.203125 C 543.828125 521.410156 541.082031 525.121094 540.300781 530.722656 C 539.511719 536.320312 543.808594 541.675781 549.429688 542.289062 C 557.539062 543.183594 567.042969 542.382812 581.332031 542.382812 " fill-opacity="1" fill-rule="nonzero"/><path fill="#000000" d="M 505.75 556.320312 L 525.417969 556.320312 C 536.160156 556.320312 545.070312 548.253906 546.136719 537.566406 L 546.824219 530.722656 C 547.40625 524.878906 545.484375 519.03125 541.542969 514.675781 C 537.601562 510.324219 531.96875 507.828125 526.097656 507.828125 L 494.730469 507.828125 C 489.078125 507.828125 484.492188 512.410156 484.492188 518.066406 C 484.492188 523.71875 489.078125 528.308594 494.730469 528.308594 L 526.097656 528.308594 C 526.15625 528.308594 526.25 528.308594 526.355469 528.417969 C 526.457031 528.53125 526.449219 528.625 526.441406 528.683594 L 525.757812 535.527344 C 525.742188 535.707031 525.59375 535.839844 525.417969 535.839844 L 505.75 535.839844 C 500.097656 535.839844 495.511719 540.421875 495.511719 546.082031 C 495.511719 551.734375 500.097656 556.320312 505.75 556.320312 " fill-opacity="1" fill-rule="nonzero"/><path fill="#44c8cc" d="M 281.640625 59.320312 C 293.9375 55.460938 307.03125 62.308594 310.886719 74.609375 C 314.738281 86.90625 307.890625 100 295.597656 103.855469 C 283.300781 107.710938 270.207031 100.859375 266.351562 88.566406 C 262.5 76.265625 269.34375 63.175781 281.640625 59.320312 Z M 242.519531 91.28125 L 245.230469 99.933594 L 255.097656 99.121094 C 256.082031 101.015625 257.207031 102.800781 258.46875 104.460938 L 253.542969 113.039062 L 260.214844 119.171875 L 268.355469 113.535156 C 270.136719 114.664062 272.007812 115.636719 273.945312 116.460938 L 273.964844 126.359375 L 282.8125 128.335938 L 287.039062 119.398438 C 289.125 119.480469 291.234375 119.386719 293.351562 119.121094 L 298.316406 127.683594 L 306.964844 124.976562 L 306.15625 115.105469 C 308.046875 114.121094 309.832031 112.992188 311.496094 111.734375 L 320.070312 116.660156 L 326.203125 109.988281 L 320.566406 101.84375 C 321.695312 100.070312 322.671875 98.195312 323.488281 96.257812 L 333.390625 96.238281 L 335.371094 87.394531 L 326.429688 83.164062 C 326.515625 81.078125 326.425781 78.972656 326.15625 76.851562 L 334.71875 71.886719 L 332.007812 63.238281 L 322.140625 64.050781 C 321.15625 62.15625 320.027344 60.371094 318.765625 58.710938 L 323.695312 50.132812 L 317.019531 44 L 308.882812 49.636719 C 307.101562 48.507812 305.226562 47.535156 303.289062 46.710938 L 303.269531 36.8125 L 294.425781 34.835938 L 290.195312 43.773438 C 288.109375 43.683594 286.003906 43.777344 283.886719 44.050781 L 278.921875 35.488281 L 270.273438 38.199219 L 271.082031 48.066406 C 269.191406 49.050781 267.402344 50.171875 265.742188 51.4375 L 257.167969 46.511719 L 251.035156 53.179688 L 256.671875 61.324219 C 255.542969 63.101562 254.566406 64.976562 253.746094 66.914062 L 243.84375 66.933594 L 241.867188 75.777344 L 250.808594 80.007812 C 250.71875 82.09375 250.8125 84.199219 251.082031 86.3125 L 242.519531 91.28125 " fill-opacity="1" fill-rule="nonzero"/><path fill="#addcde" d="M 191.453125 52.023438 C 199.609375 49.46875 208.292969 54.007812 210.847656 62.164062 C 213.402344 70.316406 208.863281 79 200.707031 81.554688 C 192.550781 84.113281 183.871094 79.574219 181.3125 71.417969 C 178.757812 63.261719 183.296875 54.582031 191.453125 52.023438 Z M 165.507812 73.222656 L 167.304688 78.957031 L 173.847656 78.421875 C 174.503906 79.671875 175.25 80.859375 176.085938 81.957031 L 172.820312 87.648438 L 177.246094 91.71875 L 182.644531 87.976562 C 183.824219 88.726562 185.0625 89.371094 186.351562 89.917969 L 186.363281 96.484375 L 192.230469 97.792969 L 195.035156 91.863281 C 196.417969 91.925781 197.8125 91.859375 199.21875 91.683594 L 202.511719 97.363281 L 208.246094 95.5625 L 207.710938 89.019531 C 208.964844 88.371094 210.148438 87.621094 211.25 86.785156 L 216.9375 90.050781 L 221.007812 85.625 L 217.269531 80.226562 C 218.015625 79.046875 218.664062 77.808594 219.207031 76.523438 L 225.773438 76.503906 L 227.082031 70.640625 L 221.15625 67.835938 C 221.214844 66.453125 221.152344 65.054688 220.972656 63.652344 L 226.652344 60.359375 L 224.855469 54.621094 L 218.3125 55.160156 C 217.660156 53.902344 216.910156 52.722656 216.074219 51.617188 L 219.34375 45.933594 L 214.917969 41.863281 L 209.519531 45.605469 C 208.335938 44.855469 207.097656 44.207031 205.808594 43.664062 L 205.796875 37.097656 L 199.929688 35.785156 L 197.128906 41.714844 C 195.746094 41.65625 194.347656 41.714844 192.945312 41.898438 L 189.648438 36.21875 L 183.914062 38.011719 L 184.449219 44.5625 C 183.195312 45.210938 182.011719 45.960938 180.910156 46.796875 L 175.222656 43.527344 L 171.15625 47.953125 L 174.890625 53.355469 C 174.144531 54.53125 173.496094 55.773438 172.953125 57.058594 L 166.386719 57.074219 L 165.078125 62.941406 L 171.003906 65.746094 C 170.945312 67.125 171.007812 68.523438 171.1875 69.925781 L 165.507812 73.222656 " fill-opacity="1" fill-rule="nonzero"/><path fill="#000000" d="M 645.953125 121.265625 C 645.882812 121.265625 645.8125 121.257812 645.738281 121.25 C 644.992188 121.132812 644.480469 120.433594 644.597656 119.683594 L 645.699219 112.667969 C 645.824219 111.921875 646.527344 111.414062 647.269531 111.527344 C 648.015625 111.648438 648.53125 112.347656 648.410156 113.09375 L 647.304688 120.109375 C 647.199219 120.785156 646.613281 121.265625 645.953125 121.265625 " fill-opacity="1" fill-rule="nonzero"/><path fill="#000000" d="M 642.078125 145.824219 C 642.011719 145.824219 641.933594 145.816406 641.867188 145.804688 C 641.117188 145.683594 640.609375 144.988281 640.726562 144.238281 L 641.832031 137.222656 C 641.949219 136.476562 642.65625 135.964844 643.394531 136.082031 C 644.144531 136.203125 644.65625 136.902344 644.535156 137.648438 L 643.433594 144.664062 C 643.328125 145.339844 642.738281 145.824219 642.078125 145.824219 " fill-opacity="1" fill-rule="nonzero"/><path fill="#000000" d="M 635.949219 128.542969 C 635.875 128.542969 635.792969 128.539062 635.714844 128.523438 L 628.824219 127.332031 C 628.078125 127.203125 627.578125 126.496094 627.707031 125.75 C 627.835938 125.003906 628.539062 124.503906 629.292969 124.632812 L 636.183594 125.824219 C 636.925781 125.953125 637.429688 126.660156 637.300781 127.410156 C 637.183594 128.074219 636.605469 128.542969 635.949219 128.542969 " fill-opacity="1" fill-rule="nonzero"/><path fill="#000000" d="M 660.089844 132.714844 C 660.003906 132.714844 659.929688 132.710938 659.847656 132.695312 L 652.957031 131.503906 C 652.207031 131.378906 651.710938 130.667969 651.84375 129.921875 C 651.96875 129.175781 652.664062 128.679688 653.425781 128.804688 L 660.320312 129.996094 C 661.0625 130.125 661.566406 130.832031 661.4375 131.578125 C 661.320312 132.246094 660.742188 132.714844 660.089844 132.714844 " fill-opacity="1" fill-rule="nonzero"/><path fill="#000000" d="M 610.363281 606.6875 C 610.289062 606.6875 610.21875 606.683594 610.148438 606.667969 C 609.398438 606.550781 608.886719 605.851562 609.003906 605.101562 L 610.113281 598.085938 C 610.226562 597.339844 610.929688 596.824219 611.679688 596.945312 C 612.421875 597.066406 612.9375 597.765625 612.816406 598.515625 L 611.714844 605.527344 C 611.609375 606.199219 611.019531 606.6875 610.363281 606.6875 " fill-opacity="1" fill-rule="nonzero"/><path fill="#000000" d="M 606.484375 631.242188 C 606.414062 631.242188 606.339844 631.234375 606.269531 631.222656 C 605.523438 631.105469 605.015625 630.402344 605.128906 629.660156 L 606.234375 622.644531 C 606.351562 621.894531 607.054688 621.386719 607.804688 621.503906 C 608.550781 621.625 609.0625 622.320312 608.941406 623.070312 L 607.835938 630.085938 C 607.730469 630.757812 607.148438 631.242188 606.484375 631.242188 " fill-opacity="1" fill-rule="nonzero"/><path fill="#000000" d="M 600.359375 613.964844 C 600.28125 613.964844 600.199219 613.957031 600.125 613.945312 L 593.230469 612.753906 C 592.480469 612.625 591.980469 611.914062 592.109375 611.171875 C 592.238281 610.425781 592.945312 609.925781 593.695312 610.054688 L 600.589844 611.246094 C 601.332031 611.378906 601.835938 612.085938 601.707031 612.828125 C 601.589844 613.496094 601.011719 613.964844 600.359375 613.964844 " fill-opacity="1" fill-rule="nonzero"/><path fill="#000000" d="M 624.492188 618.132812 C 624.414062 618.132812 624.335938 618.128906 624.257812 618.117188 L 617.363281 616.925781 C 616.617188 616.792969 616.117188 616.085938 616.246094 615.34375 C 616.375 614.59375 617.078125 614.097656 617.832031 614.226562 L 624.726562 615.417969 C 625.46875 615.546875 625.96875 616.257812 625.839844 617 C 625.726562 617.667969 625.148438 618.132812 624.492188 618.132812 " fill-opacity="1" fill-rule="nonzero"/><path fill="#ffffff" d="M 531.15625 642.632812 C 533.390625 642.316406 535.875 642.496094 538.601562 643.410156 L 571.015625 650.539062 C 571.015625 650.539062 563.855469 659.332031 556.398438 659.835938 C 560.4375 666.113281 562.75 671.691406 562.75 671.691406 C 562.75 671.691406 577.113281 675.253906 580.074219 676.570312 C 583.035156 677.882812 587.292969 679.328125 589.363281 682.417969 C 591.445312 685.511719 591.199219 690.175781 591.199219 690.175781 L 556.804688 688.011719 L 525.929688 662.160156 L 469.28125 690.265625 L 471.796875 655.363281 L 531.15625 642.632812 " fill-opacity="1" fill-rule="nonzero"/><path fill="#000000" d="M 557.335938 686.671875 L 589.808594 688.714844 C 589.710938 687.238281 589.375 684.894531 588.222656 683.183594 C 586.667969 680.863281 583.4375 679.492188 580.839844 678.390625 C 580.378906 678.199219 579.9375 678.007812 579.519531 677.820312 C 577.179688 676.78125 566.378906 674.003906 562.417969 673.019531 C 561.996094 672.917969 561.648438 672.617188 561.480469 672.21875 C 561.464844 672.160156 559.160156 666.664062 555.242188 660.578125 C 554.980469 660.167969 554.953125 659.65625 555.171875 659.222656 C 555.390625 658.785156 555.820312 658.503906 556.304688 658.46875 C 561.15625 658.140625 566.007812 653.832031 568.410156 651.371094 L 538.304688 644.746094 C 538.261719 644.738281 538.207031 644.726562 538.164062 644.707031 C 535.839844 643.929688 533.5625 643.6875 531.394531 643.984375 L 473.085938 656.488281 L 470.816406 687.972656 L 525.320312 660.933594 C 525.800781 660.695312 526.386719 660.761719 526.800781 661.113281 Z M 469.277344 691.640625 C 469.007812 691.640625 468.742188 691.558594 468.511719 691.402344 C 468.105469 691.128906 467.875 690.660156 467.914062 690.171875 L 470.425781 655.265625 C 470.476562 654.65625 470.910156 654.152344 471.503906 654.023438 L 530.867188 641.292969 C 530.898438 641.289062 530.929688 641.28125 530.964844 641.277344 C 533.546875 640.910156 536.238281 641.183594 538.960938 642.085938 L 571.304688 649.203125 C 571.773438 649.304688 572.148438 649.640625 572.308594 650.089844 C 572.460938 650.539062 572.378906 651.035156 572.074219 651.40625 C 571.800781 651.746094 565.730469 659.113281 558.652344 660.859375 C 561.335938 665.273438 563.089844 669.0625 563.734375 670.527344 C 566.636719 671.253906 577.933594 674.117188 580.628906 675.320312 C 581.035156 675.5 581.464844 675.683594 581.910156 675.867188 C 584.835938 677.113281 588.480469 678.660156 590.496094 681.65625 C 592.808594 685.089844 592.582031 690.035156 592.566406 690.246094 C 592.554688 690.609375 592.386719 690.953125 592.117188 691.195312 C 591.839844 691.4375 591.484375 691.558594 591.117188 691.539062 L 556.714844 689.375 C 556.421875 689.359375 556.144531 689.25 555.917969 689.0625 L 525.734375 663.785156 L 469.886719 691.492188 C 469.695312 691.589844 469.484375 691.640625 469.277344 691.640625 " fill-opacity="1" fill-rule="nonzero"/><path fill="#048c90" d="M 529.515625 672.167969 C 529.515625 672.167969 508.976562 640.203125 508.941406 640.160156 C 507.324219 637.644531 493.816406 641.660156 491.320312 641.804688 C 482.359375 642.320312 473.046875 640.863281 464.117188 639.871094 C 445.050781 637.757812 426.089844 634.691406 407.328125 630.679688 C 392.007812 627.40625 376.597656 623.421875 363.023438 615.601562 C 345.148438 605.304688 335.773438 589.261719 328.613281 570.546875 C 323.203125 556.40625 316.753906 544.585938 308.683594 531.636719 C 296.738281 512.476562 276.90625 496.75 260.445312 488.582031 C 234.867188 475.898438 205.125 469.769531 176.789062 475.421875 C 122.109375 486.332031 84.710938 518.203125 84.710938 518.203125 C 54.960938 541.957031 0.0078125 624.773438 19.601562 664.652344 C 43.632812 713.558594 108.402344 684.945312 108.402344 684.945312 C 108.402344 684.945312 114.691406 695.210938 101.179688 726.433594 C 84.761719 764.363281 108.550781 769.4375 108.550781 769.4375 C 163.84375 796.472656 310.316406 790.425781 297.824219 760.242188 C 284.453125 727.929688 284.230469 686.96875 284.230469 686.96875 C 302.710938 705.242188 342.738281 709.105469 342.738281 709.105469 C 342.738281 709.105469 376.527344 712.300781 397.988281 708.648438 C 518.074219 690.839844 529.515625 672.167969 529.515625 672.167969 " fill-opacity="1" fill-rule="nonzero"/><path fill="#000000" d="M 109.230469 661.089844 C 108.664062 661.089844 108.132812 660.734375 107.9375 660.167969 C 89.632812 607.203125 98.132812 564.421875 98.222656 563.996094 C 98.375 563.253906 99.105469 562.777344 99.839844 562.929688 C 100.582031 563.082031 101.058594 563.808594 100.902344 564.550781 C 100.816406 564.96875 92.480469 607.058594 110.527344 659.273438 C 110.773438 659.988281 110.394531 660.765625 109.679688 661.015625 C 109.53125 661.066406 109.378906 661.089844 109.230469 661.089844 " fill-opacity="1" fill-rule="nonzero"/><path fill="#000000" d="M 283.144531 688.625 C 282.800781 688.625 282.453125 688.496094 282.1875 688.234375 C 253.570312 660.289062 233.648438 595.378906 232.816406 592.628906 C 232.597656 591.90625 233.003906 591.140625 233.730469 590.921875 C 234.457031 590.699219 235.21875 591.113281 235.4375 591.835938 C 235.640625 592.5 255.992188 658.824219 284.101562 686.273438 C 284.640625 686.804688 284.652344 687.667969 284.125 688.210938 C 283.855469 688.484375 283.5 688.625 283.144531 688.625 " fill-opacity="1" fill-rule="nonzero"/><path fill="#ffffff" d="M 208.015625 345.90625 C 219.066406 345.957031 229.25 351.933594 234.796875 361.488281 C 237.367188 365.914062 239.703125 370.042969 240.175781 371.210938 C 241.25 373.867188 243.621094 382.78125 252.304688 391.375 C 253.164062 392.226562 253.285156 393.570312 252.539062 394.519531 L 246.976562 401.636719 C 246.59375 402.128906 246.433594 402.753906 246.539062 403.367188 C 247.203125 407.164062 250.515625 420.941406 249.539062 423.425781 C 247.460938 428.695312 234.863281 430.121094 231.128906 430.433594 C 230.429688 430.488281 229.804688 430.882812 229.464844 431.496094 C 228.253906 433.683594 225.0625 439.941406 222.441406 455.550781 C 218.445312 479.332031 241.121094 483.03125 236.5 485.363281 C 204.289062 501.621094 144.96875 497.925781 148.410156 491.164062 C 151.238281 485.601562 183.789062 471.199219 186.816406 432.078125 C 188.703125 407.679688 154.539062 405.675781 179.15625 359.234375 C 184.878906 348.441406 197.265625 345.855469 208.015625 345.90625 " fill-opacity="1" fill-rule="nonzero"/><path fill="#000000" d="M 149.671875 491.703125 C 149.820312 491.878906 150.34375 492.355469 152.007812 492.933594 C 163.589844 496.96875 207.929688 497.886719 235.253906 484.457031 C 234.8125 484.109375 234.199219 483.679688 233.667969 483.308594 C 228.648438 479.796875 218.203125 472.5 221.089844 455.320312 C 222.933594 444.34375 225.347656 436.101562 228.265625 430.832031 C 228.824219 429.824219 229.851562 429.160156 231.015625 429.066406 C 238.085938 428.480469 246.847656 426.515625 248.261719 422.921875 C 248.863281 421.347656 246.84375 411.667969 245.980469 407.535156 C 245.640625 405.902344 245.347656 404.488281 245.191406 403.601562 C 245.019531 402.613281 245.273438 401.585938 245.898438 400.792969 L 251.460938 393.675781 C 251.769531 393.28125 251.71875 392.722656 251.34375 392.351562 C 243.558594 384.648438 240.734375 376.78125 239.378906 373 C 239.191406 372.484375 239.039062 372.054688 238.90625 371.722656 C 238.691406 371.191406 237.71875 369.25 233.613281 362.175781 C 228.304688 353.03125 218.492188 347.324219 208.007812 347.273438 C 207.914062 347.273438 207.816406 347.273438 207.722656 347.273438 C 198.222656 347.273438 185.875 349.484375 180.367188 359.878906 C 165.132812 388.613281 172.792969 399.621094 180.199219 410.265625 C 184.480469 416.417969 188.910156 422.785156 188.179688 432.179688 C 185.808594 462.835938 165.945312 478.390625 155.273438 486.75 C 152.59375 488.851562 150.265625 490.671875 149.671875 491.703125 Z M 176.851562 498.261719 C 162.09375 498.261719 150.464844 496.386719 147.792969 493.703125 C 146.859375 492.773438 146.640625 491.617188 147.1875 490.542969 C 147.980469 488.980469 150.210938 487.234375 153.585938 484.589844 C 163.925781 476.496094 183.171875 461.425781 185.449219 431.96875 C 186.101562 423.542969 182.140625 417.855469 177.949219 411.828125 C 170.441406 401.039062 161.933594 388.808594 177.949219 358.59375 C 182.824219 349.390625 193.113281 344.53125 207.714844 344.53125 C 207.816406 344.53125 207.917969 344.53125 208.023438 344.53125 C 219.472656 344.585938 230.1875 350.824219 235.984375 360.804688 C 240.796875 369.097656 241.285156 370.300781 241.445312 370.691406 C 241.589844 371.046875 241.757812 371.515625 241.957031 372.078125 C 243.246094 375.667969 245.929688 383.136719 253.269531 390.402344 C 254.628906 391.75 254.777344 393.882812 253.617188 395.363281 L 248.054688 402.480469 C 247.910156 402.667969 247.847656 402.898438 247.890625 403.128906 C 248.035156 403.976562 248.328125 405.363281 248.664062 406.976562 C 250.691406 416.691406 251.578125 421.980469 250.8125 423.925781 C 248.515625 429.753906 236.363281 431.371094 231.242188 431.796875 C 230.996094 431.816406 230.777344 431.953125 230.664062 432.160156 C 227.214844 438.386719 225.023438 448.4375 223.792969 455.773438 C 221.195312 471.238281 230.328125 477.632812 235.238281 481.0625 C 237.328125 482.523438 238.589844 483.402344 238.488281 484.792969 C 238.453125 485.316406 238.183594 486.046875 237.117188 486.585938 C 220.179688 495.132812 195.90625 498.261719 176.851562 498.261719 " fill-opacity="1" fill-rule="nonzero"/><path fill="#000000" d="M 226.796875 383.515625 L 239.683594 367.382812 C 246.296875 359.109375 243.984375 346.917969 234.832031 341.585938 C 232.300781 340.101562 229.316406 338.558594 225.988281 337.125 C 192.890625 322.871094 154.96875 346.390625 154.933594 382.425781 C 154.917969 397.175781 164.78125 414.273438 185.738281 429.46875 C 185.738281 429.46875 200.464844 417.855469 200.277344 405.292969 C 200.277344 405.292969 189.589844 392.613281 204.648438 386.199219 C 207.53125 384.96875 210.820312 385.066406 213.632812 386.449219 C 218.164062 388.683594 223.644531 387.464844 226.796875 383.515625 " fill-opacity="1" fill-rule="nonzero"/><path fill="#000000" d="M 207.164062 412.4375 C 202.878906 412.4375 197.410156 410.609375 193.34375 402.921875 C 192.992188 402.253906 193.246094 401.421875 193.914062 401.070312 C 194.585938 400.714844 195.414062 400.972656 195.765625 401.640625 C 202.183594 413.773438 212.257812 408.726562 212.683594 408.507812 C 213.355469 408.15625 214.179688 408.417969 214.53125 409.085938 C 214.878906 409.753906 214.625 410.578125 213.957031 410.929688 C 213.894531 410.964844 211.007812 412.4375 207.164062 412.4375 " fill-opacity="1" fill-rule="nonzero"/><path fill="#000000" d="M 172.183594 348.21875 C 172.183594 348.21875 161.007812 309.554688 120.234375 316.835938 C 94.78125 321.375 72.546875 338.484375 60.335938 366.394531 C 51.296875 387.050781 51.671875 405.332031 49.683594 426.984375 C 47.90625 446.347656 30.660156 459.28125 26.757812 477.699219 C 21.988281 500.179688 43.867188 516.394531 64.953125 512.214844 C 88.503906 507.550781 110.351562 482.929688 119.996094 462.300781 C 129.960938 440.980469 131.605469 417.300781 136.644531 394.613281 C 138.828125 384.789062 140.480469 371.214844 148.304688 364.410156 C 152.320312 360.914062 165.53125 360.53125 167.816406 356.296875 C 167.820312 356.292969 172.183594 348.21875 172.183594 348.21875 " fill-opacity="1" fill-rule="nonzero"/></svg>